<svg width="149" height="113" viewBox="0 0 149 113" fill="none" xmlns="http://www.w3.org/2000/svg">
<path d="M72.9202 26.2227C74.5008 27.8033 75.7734 29.6815 76.9098 31.6075C77.1656 32.0397 77.7547 32.1264 78.1271 31.7884C79.5058 30.5428 80.8262 29.2329 82.4457 28.2863C88.9625 24.4761 96.677 26.0672 97.6371 34.3874C98.7765 44.2792 90.8765 54.2847 83.2711 59.6904C80.8935 61.3801 76.7588 63.5215 74.0253 62.6048C70.7325 61.5013 68.2502 58.2922 66.3003 53.4637L68.1231 52.3945L69.2057 54.3176C70.4933 56.2944 73.2731 60.6923 75.9543 60.5278C77.9835 60.4037 81.5784 57.7105 83.1709 56.4036C87.9142 52.5126 92.5752 46.9963 94.1558 40.9415C95.4673 35.9171 95.1443 28.865 88.2462 29.3645C84.7934 29.6142 81.5829 32.0382 79.3936 34.5623C79.3488 34.6132 79.2845 34.6969 79.2052 34.8046C78.1929 36.1609 76.1203 36.0039 75.3068 34.519C75.2934 34.4935 75.2799 34.4696 75.2649 34.4442C72.9681 30.3484 69.439 26.4231 64.7855 25.0892C59.2257 23.4937 54.2566 26.0283 53.7302 32.0427C52.7463 43.2713 61.1652 60.6175 71.8839 64.1196C75.5281 65.31 76.5839 65.3025 79.5073 64.8942L82.8913 63.9462C82.7403 63.6052 83.307 65.3099 83.3085 65.3099C83.9515 68.024 74.8941 69.0244 69.2312 66.0143C58.0503 60.0717 50.113 45.5203 50.0472 33.4453C49.9709 19.4921 64.3488 17.6513 72.9187 26.2242L72.9202 26.2227Z" fill="#8EC63F"/>
<path d="M77.0097 49.13C78.4886 48.2792 80.4221 48.5513 81.2446 50.1349C83.1093 53.7208 78.1581 57.027 75.1525 58.0708C75.0029 58.1231 74.8384 58.0917 74.7173 57.9886C72.8825 56.4319 70.5796 53.0912 70.3643 50.7645C69.9546 46.3397 74.804 45.426 76.3323 48.9491C76.4474 49.2138 76.7794 49.3035 77.0097 49.13Z" fill="#1BA99D"/>
<path d="M71.1937 0.105325C83.5708 1.92668 77.9497 22.1664 66.3966 20.2897C54.3604 18.3338 59.479 -1.61733 71.1937 0.105325ZM70.4714 3.60896C63.1651 2.6609 59.0902 15.6631 66.7106 17.0149C74.4476 18.3876 78.7139 4.67664 70.4714 3.60896Z" fill="#1BA99D"/>
<path d="M72.9202 26.2227C74.5008 27.8033 75.7734 29.6815 76.9098 31.6075C77.1656 32.0397 77.7547 32.1264 78.1271 31.7884C79.5058 30.5428 80.8262 29.2329 82.4457 28.2863C88.9625 24.4761 96.677 26.0672 97.6371 34.3874C98.7765 44.2792 90.8765 54.2847 83.2711 59.6904C80.8935 61.3801 76.7588 63.5215 74.0253 62.6048C70.7325 61.5013 68.2502 58.2922 66.3003 53.4637L68.1231 52.3945L69.2057 54.3176C70.4933 56.2944 73.2731 60.6923 75.9543 60.5278C77.9835 60.4037 81.5784 57.7105 83.1709 56.4036C87.9142 52.5126 92.5752 46.9963 94.1558 40.9415C95.4673 35.9171 95.1443 28.865 88.2462 29.3645C84.7934 29.6142 81.5829 32.0382 79.3936 34.5623C79.3488 34.6132 79.2845 34.6969 79.2052 34.8046C78.1929 36.1609 76.1203 36.0039 75.3068 34.519C75.2934 34.4935 75.2799 34.4696 75.2649 34.4442C72.9681 30.3484 69.439 26.4231 64.7855 25.0892C59.2257 23.4937 54.2566 26.0283 53.7302 32.0427C52.7463 43.2713 61.1652 60.6175 71.8839 64.1196C75.5281 65.31 76.5839 65.3025 79.5073 64.8942L82.8913 63.9462C82.7403 63.6052 83.307 65.3099 83.3085 65.3099C83.9515 68.024 74.8941 69.0244 69.2312 66.0143C58.0503 60.0717 50.113 45.5203 50.0472 33.4453C49.9709 19.4921 64.3488 17.6513 72.9187 26.2242L72.9202 26.2227Z" fill="#8EC63F"/>
<path d="M77.0097 49.13C78.4886 48.2792 80.4221 48.5513 81.2446 50.1349C83.1093 53.7208 78.1581 57.027 75.1525 58.0708C75.0029 58.1231 74.8384 58.0917 74.7173 57.9886C72.8825 56.4319 70.5796 53.0912 70.3643 50.7645C69.9546 46.3397 74.804 45.426 76.3323 48.9491C76.4474 49.2138 76.7794 49.3035 77.0097 49.13Z" fill="#1BA99D"/>
<path d="M71.1937 0.105325C83.5708 1.92668 77.9497 22.1664 66.3966 20.2897C54.3604 18.3338 59.479 -1.61733 71.1937 0.105325ZM70.4714 3.60896C63.1651 2.6609 59.0902 15.6631 66.7106 17.0149C74.4476 18.3876 78.7139 4.67664 70.4714 3.60896Z" fill="#1BA99D"/>
<g opacity="0.65">
<path d="M73.5648 26.9756C75.1453 28.5562 76.4179 30.4344 77.5544 32.3604C77.8101 32.7926 78.3993 32.8793 78.7716 32.5414C80.1503 31.2957 81.4707 29.9858 83.0902 29.0392C89.607 25.2291 97.3216 26.8201 98.2816 35.1403C99.421 45.0321 91.5211 55.0376 83.9156 60.4433C81.538 62.1331 77.4033 64.2744 74.6698 63.3578C71.377 62.2542 68.8947 59.0452 66.9448 54.2166L68.7676 53.1475L69.8503 55.0705C71.1378 57.0474 73.9177 61.4452 76.5988 61.2807C78.628 61.1566 82.2229 58.4635 83.8155 57.1565C88.5587 53.2656 93.2198 47.7492 94.8004 41.6945C96.1118 36.6701 95.7888 29.6179 88.8907 30.1174C85.4379 30.3671 82.2274 32.7911 80.0382 35.3153C79.9933 35.3661 79.929 35.4499 79.8498 35.5575C78.8374 36.9138 76.7648 36.7568 75.9513 35.2719C75.9379 35.2465 75.9244 35.2225 75.9095 35.1971C73.6126 31.1013 70.0836 27.176 65.43 25.8422C59.8702 24.2466 54.9012 26.7812 54.3748 32.7956C53.3908 44.0242 61.8097 61.3704 72.5285 64.8726C76.1727 66.0629 77.2284 66.0554 80.1518 65.6472L83.5358 64.6991C83.3848 64.3582 83.9515 66.0629 83.953 66.0629C84.596 68.777 75.5386 69.7774 69.8757 66.7672C58.6949 60.8246 50.7575 46.2733 50.6917 34.1982C50.6154 20.245 64.9933 18.4042 73.5633 26.9771L73.5648 26.9756Z" fill="#8EC63F"/>
<path d="M77.6542 49.883C79.1331 49.0321 81.0667 49.3043 81.8891 50.8878C83.7538 54.4737 78.8027 57.78 75.797 58.8237C75.6475 58.8761 75.483 58.8447 75.3618 58.7415C73.527 57.1848 71.2242 53.8442 71.0088 51.5174C70.5991 47.0926 75.4486 46.179 76.9768 49.702C77.092 49.9667 77.424 50.0564 77.6542 49.883Z" fill="#1BA99D"/>
<path d="M71.8382 0.858255C84.2153 2.67961 78.5943 22.9193 67.0411 21.0426C55.0049 19.0867 60.1236 -0.864401 71.8382 0.858255ZM71.116 4.36189C63.8096 3.41383 59.7348 16.416 67.3551 17.7678C75.0921 19.1405 79.3584 5.42957 71.116 4.36189Z" fill="#1BA99D"/>
</g>
<path d="M0.457813 81.5657V81.5142H4.96094C8.10625 81.5142 10.8219 83.9548 10.8219 87.6329C10.8219 91.4657 8.10625 93.8892 4.96094 93.8892H0.457813V93.8204C0.526563 93.511 0.853125 92.3938 0.853125 91.3282V84.0751C0.853125 82.9923 0.526563 81.8923 0.457813 81.5657ZM4.39375 82.1673H3.00156V93.2188H4.39375C7.02344 93.2188 8.41563 90.7095 8.39844 87.6329C8.38125 84.6595 7.02344 82.1673 4.39375 82.1673ZM13.3799 83.6282C12.658 83.6282 12.0392 83.0438 12.0392 82.3048C12.0392 81.5657 12.6408 80.9813 13.3799 80.9813C14.1189 80.9813 14.7377 81.5657 14.7377 82.3048C14.7377 83.0438 14.1189 83.6282 13.3799 83.6282ZM14.8752 93.8204V93.8892H12.0736V93.8204C12.1424 93.511 12.4689 92.3938 12.4689 91.3282V87.8563C12.4689 86.7735 12.1424 85.6735 12.0736 85.347V85.2954H14.4799V91.3282C14.4799 92.3938 14.8064 93.511 14.8752 93.8204ZM17.0248 87.6501C16.5951 86.6704 15.9936 85.6735 15.7014 85.347V85.2954H19.1733V85.347C19.0701 85.6563 18.8123 86.6188 19.2076 87.547L21.0467 91.9813L22.817 87.5642C23.1951 86.636 22.9029 85.6563 22.7826 85.347V85.2954H24.6904V85.347C24.5701 85.5532 24.0201 86.4298 23.6592 87.2892L21.0295 93.8892H19.6717L17.0248 87.6501ZM26.9251 83.6282C26.2032 83.6282 25.5845 83.0438 25.5845 82.3048C25.5845 81.5657 26.186 80.9813 26.9251 80.9813C27.6642 80.9813 28.2829 81.5657 28.2829 82.3048C28.2829 83.0438 27.6642 83.6282 26.9251 83.6282ZM28.4204 93.8204V93.8892H25.6188V93.8204C25.6876 93.511 26.0142 92.3938 26.0142 91.3282V87.8563C26.0142 86.7735 25.6876 85.6735 25.6188 85.347V85.2954H28.0251V91.3282C28.0251 92.3938 28.3517 93.511 28.4204 93.8204ZM32.5466 93.8204V93.8892H29.745V93.8204C29.8138 93.511 30.1404 92.3938 30.1404 91.3282V87.8563C30.1404 86.7735 29.8138 85.6735 29.745 85.347V85.2954H32.1513V86.7735C32.8216 85.811 33.7325 85.1923 34.9357 85.1923C36.3966 85.1923 37.7544 86.0517 37.7544 88.097V91.3282C37.7544 92.3938 38.081 93.511 38.1497 93.8204V93.8892H35.331V93.8204C35.3997 93.511 35.7263 92.3938 35.7263 91.3282V88.3548C35.7263 87.0313 34.9185 86.4985 34.0419 86.4813C33.3716 86.4813 32.7529 86.7735 32.1513 87.2892V91.3282C32.1513 92.3938 32.4779 93.511 32.5466 93.8204ZM43.265 94.0438C41.1166 94.0438 39.1057 92.4798 39.1057 89.5923C39.1057 86.8767 40.8588 85.1923 43.265 85.1923C45.8088 85.1923 47.0463 87.1001 47.0463 89.3517H41.3228C41.4432 91.2938 42.3197 92.6688 44.1416 92.6688C45.0697 92.6688 45.9291 92.3423 46.926 91.5001L46.9775 91.5517C46.4619 92.8235 45.1385 94.0438 43.265 94.0438ZM43.2307 85.811C41.8557 85.811 41.3057 87.3407 41.3057 88.9392L44.9838 88.5438C44.9322 87.0657 44.451 85.811 43.2307 85.811Z" fill="#1BA99D"/>
<path d="M57.5171 93.8892L53.5124 83.7485C53.4952 83.9032 53.4952 84.0579 53.4952 84.2126V90.0048C53.4952 91.672 54.2687 93.4938 54.3546 93.8032V93.8892H51.8452V93.8032C51.9312 93.4938 52.7046 91.672 52.7046 90.0048V84.2126C52.7046 83.061 52.1202 81.8235 52.0515 81.5829V81.5142H55.2483L58.8749 90.572L62.2608 81.5142H65.2687V81.5829C65.2171 81.8063 64.8218 83.0438 64.8218 84.1954V91.2079C64.8218 92.3595 65.2171 93.597 65.2687 93.8204V93.8892H61.814V93.8204C61.8655 93.597 62.2608 92.3595 62.2608 91.2079V83.7142L58.4624 93.8892H57.5171ZM70.714 94.061C68.3078 94.061 66.2453 92.5142 66.2453 89.5407C66.2453 86.5845 68.3078 85.1407 70.714 85.1407C73.1031 85.1407 75.1999 86.6017 75.1999 89.5407C75.1999 92.5142 73.1031 94.061 70.714 94.061ZM70.714 93.3735C71.9687 93.3735 72.4843 91.4313 72.4843 89.5407C72.4843 87.6673 71.9687 85.811 70.714 85.811C69.4421 85.811 68.9609 87.6845 68.9609 89.5407C68.9609 91.4142 69.4421 93.3735 70.714 93.3735ZM79.23 94.061C77.7863 94.061 76.9441 93.0642 76.9441 91.3626V85.9829H75.6894V85.3126C77.4081 84.5907 78.4222 83.5595 79.2644 82.3735H79.3675V85.2438H81.705V85.9829H79.3675V91.122C79.3675 92.0329 79.8488 92.4454 80.5535 92.4454C80.9144 92.4454 81.3956 92.3423 81.8941 92.0673C81.4816 93.0985 80.6566 94.061 79.23 94.061ZM85.9663 93.8204V93.8892H82.6663V93.8204C82.7179 93.597 83.1132 92.3595 83.1132 91.2079V84.0407C83.1132 82.8892 82.7007 81.7032 82.6147 81.4798L82.5976 81.411L83.0444 81.3423L85.5366 81.0501V86.6532C86.1897 85.7595 87.0835 85.1407 88.2866 85.1407C89.7991 85.1407 91.1226 86.0517 91.1226 88.0282V91.2079C91.1226 92.3595 91.5179 93.597 91.5522 93.8204V93.8892H88.2522V93.8204C88.3038 93.597 88.6991 92.3595 88.6991 91.2079V88.3548C88.6991 87.1345 87.9257 86.6704 87.0835 86.6704C86.5507 86.6704 86.0351 86.8595 85.5366 87.186V91.2079C85.5366 92.3595 85.9319 93.597 85.9663 93.8204ZM96.7094 94.061C94.5782 94.061 92.4126 92.5829 92.4126 89.5751C92.4126 86.8079 94.2172 85.1407 96.7438 85.1407C99.5282 85.1407 100.663 87.2032 100.663 89.3688H95.0766C95.2485 91.1735 96.0563 92.4626 97.8094 92.4626C98.7032 92.4626 99.511 92.1704 100.491 91.4313L100.559 91.4657C100.095 92.686 98.7719 94.061 96.7094 94.061ZM95.0594 88.7501C95.0594 88.8188 95.0594 88.8876 95.0594 88.9563L98.2391 88.4579C98.2047 87.1173 97.861 85.811 96.7094 85.811C95.4547 85.811 95.0422 87.3063 95.0594 88.7501ZM104.966 93.8204V93.8892H101.649V93.8204C101.7 93.597 102.095 92.3595 102.095 91.2079V87.9251C102.095 86.7735 101.7 85.536 101.649 85.2954V85.2438H104.519V86.8767C105.155 85.5876 106.341 84.6423 108.111 85.2095L107.733 87.8392H107.647C106.891 87.0657 105.688 86.4985 104.519 87.3407V91.2079C104.519 92.3595 104.914 93.597 104.966 93.8204ZM112.1 93.8204V93.8892H108.8V93.8204C108.852 93.597 109.247 92.3595 109.247 91.2079V84.0407C109.247 82.8892 108.834 81.7032 108.748 81.4798L108.731 81.411L109.178 81.3423L111.67 81.0501V86.6532C112.323 85.7595 113.217 85.1407 114.42 85.1407C115.933 85.1407 117.256 86.0517 117.256 88.0282V91.2079C117.256 92.3595 117.652 93.597 117.686 93.8204V93.8892H114.386V93.8204C114.438 93.597 114.833 92.3595 114.833 91.2079V88.3548C114.833 87.1345 114.059 86.6704 113.217 86.6704C112.684 86.6704 112.169 86.8595 111.67 87.186V91.2079C111.67 92.3595 112.066 93.597 112.1 93.8204ZM123.015 94.061C120.609 94.061 118.546 92.5142 118.546 89.5407C118.546 86.5845 120.609 85.1407 123.015 85.1407C125.404 85.1407 127.501 86.6017 127.501 89.5407C127.501 92.5142 125.404 94.061 123.015 94.061ZM123.015 93.3735C124.27 93.3735 124.785 91.4313 124.785 89.5407C124.785 87.6673 124.27 85.811 123.015 85.811C121.743 85.811 121.262 87.6845 121.262 89.5407C121.262 91.4142 121.743 93.3735 123.015 93.3735ZM132.968 94.061C130.562 94.061 128.5 92.5142 128.5 89.5407C128.5 86.5845 130.562 85.1407 132.968 85.1407C135.357 85.1407 137.454 86.6017 137.454 89.5407C137.454 92.5142 135.357 94.061 132.968 94.061ZM132.968 93.3735C134.223 93.3735 134.739 91.4313 134.739 89.5407C134.739 87.6673 134.223 85.811 132.968 85.811C131.696 85.811 131.215 87.6845 131.215 89.5407C131.215 91.4142 131.696 93.3735 132.968 93.3735ZM145.087 93.8892C144.915 93.4595 144.692 93.1329 144.554 92.6173C143.833 93.6829 142.819 94.0438 141.925 94.0438C140.172 94.0438 138.47 92.5829 138.47 89.5751C138.47 86.5845 140.154 85.1407 141.959 85.1407C142.939 85.1407 143.884 85.5704 144.451 86.4298V84.0407C144.451 82.8892 143.867 81.7032 143.781 81.4798L143.764 81.4282L144.383 81.3423L146.875 81.0501V91.2079C146.875 92.3595 147.27 93.597 147.322 93.8204V93.8892H145.087ZM141.1 89.5235C141.1 91.1735 141.564 92.8063 142.99 92.8063C143.506 92.8063 143.987 92.5657 144.469 92.136C144.451 91.9985 144.451 91.8267 144.451 91.6548V87.1173C144.039 86.7563 143.558 86.5157 143.025 86.5157C141.701 86.5157 141.1 87.8392 141.1 89.5235Z" fill="#8EC63F"/>
<path d="M17.9992 108.452V100.858H19.1172V108.452H17.9992ZM18.5477 108.452V107.534H22.9352V108.452H18.5477ZM23.5204 108.452V103.073H24.6172V108.452H23.5204ZM23.4676 102.018V100.784H24.6805V102.018H23.4676ZM26.1577 108.452V102.45C26.1577 101.902 26.3124 101.484 26.6217 101.195C26.9311 100.9 27.3952 100.752 28.0139 100.752C28.1546 100.752 28.2706 100.759 28.362 100.774C28.4534 100.788 28.5342 100.809 28.6046 100.837V101.681C28.5553 101.667 28.4885 101.652 28.4042 101.638C28.3268 101.624 28.2389 101.617 28.1405 101.617C27.8311 101.617 27.6061 101.695 27.4655 101.849C27.3249 101.997 27.2546 102.208 27.2546 102.482V108.452H26.1577ZM25.1241 103.948V103.073H28.4885V103.948H25.1241ZM31.2598 108.557C30.7184 108.557 30.2403 108.438 29.8255 108.199C29.4176 107.959 29.0977 107.629 28.8657 107.207C28.6337 106.785 28.5176 106.3 28.5176 105.752C28.5176 105.196 28.6301 104.711 28.8551 104.296C29.0872 103.874 29.4106 103.547 29.8255 103.315C30.2403 103.083 30.7149 102.967 31.2493 102.967C31.7696 102.967 32.2196 103.08 32.5993 103.305C32.986 103.523 33.2813 103.829 33.4852 104.222C33.6962 104.616 33.8016 105.084 33.8016 105.625C33.8016 105.709 33.7981 105.79 33.7911 105.868C33.7911 105.938 33.7841 106.012 33.77 106.089H29.2559V105.267H33.0001L32.7259 105.593C32.7259 105.017 32.5958 104.577 32.3356 104.275C32.0755 103.973 31.7134 103.822 31.2493 103.822C30.7501 103.822 30.3528 103.994 30.0575 104.338C29.7692 104.676 29.6251 105.147 29.6251 105.752C29.6251 106.363 29.7692 106.842 30.0575 107.186C30.3528 107.531 30.7606 107.703 31.2809 107.703C31.5973 107.703 31.8716 107.64 32.1036 107.513C32.3356 107.379 32.5079 107.186 32.6204 106.933H33.654C33.4782 107.439 33.1794 107.836 32.7575 108.125C32.3426 108.413 31.8434 108.557 31.2598 108.557ZM38.1319 108.452L35.9276 100.858H37.0667L38.9968 107.85H38.7225L40.5577 100.858H41.8761L43.7218 107.85H43.4475L45.3776 100.858H46.4534L44.2491 108.452H42.9413L41.085 101.649H41.3065L39.4397 108.452H38.1319ZM47.1208 108.452V103.073H48.2176V108.452H47.1208ZM47.068 102.018V100.784H48.2809V102.018H47.068ZM51.6143 108.557C50.9885 108.557 50.528 108.413 50.2327 108.125C49.9444 107.829 49.8003 107.397 49.8003 106.827V101.839L50.8866 101.427V106.838C50.8866 107.119 50.9604 107.327 51.1081 107.46C51.2557 107.594 51.4948 107.661 51.8253 107.661C51.9518 107.661 52.0643 107.65 52.1628 107.629C52.2612 107.608 52.3456 107.583 52.4159 107.555V108.441C52.3385 108.476 52.2296 108.504 52.0889 108.525C51.9483 108.547 51.7901 108.557 51.6143 108.557ZM48.7245 103.948V103.073H52.4159V103.948H48.7245ZM53.0652 108.452V100.858H54.1621V108.452H53.0652ZM56.8832 108.452V104.992C56.8832 104.62 56.7882 104.342 56.5984 104.159C56.4156 103.976 56.1414 103.885 55.7757 103.885C55.4593 103.885 55.1781 103.955 54.932 104.096C54.6929 104.236 54.5031 104.43 54.3625 104.676C54.2289 104.922 54.1621 105.214 54.1621 105.551L54.025 104.265C54.2007 103.864 54.4714 103.547 54.8371 103.315C55.2027 103.083 55.6281 102.967 56.1132 102.967C56.6898 102.967 57.1433 103.129 57.4738 103.452C57.8043 103.776 57.9695 104.205 57.9695 104.739V108.452H56.8832ZM59.0501 108.452V103.073H60.147V108.452H59.0501ZM58.9973 102.018V100.784H60.2102V102.018H58.9973ZM61.2962 108.452V103.073H62.3403V104.338H62.393V108.452H61.2962ZM65.1141 108.452V104.992C65.1141 104.62 65.0192 104.342 64.8294 104.159C64.6466 103.976 64.3723 103.885 64.0067 103.885C63.6903 103.885 63.4091 103.955 63.163 104.096C62.9239 104.236 62.7341 104.43 62.5934 104.676C62.4598 104.922 62.393 105.214 62.393 105.551L62.2559 104.265C62.4317 103.864 62.7024 103.547 63.068 103.315C63.4337 103.083 63.8591 102.967 64.3442 102.967C64.9208 102.967 65.3743 103.129 65.7048 103.452C66.0352 103.776 66.2005 104.205 66.2005 104.739V108.452H65.1141ZM68.981 110.055V109.506C69.2271 109.422 69.3959 109.292 69.4873 109.116C69.5857 108.947 69.6349 108.701 69.6349 108.378L70.0673 108.452H68.9705V107.154H70.2677V108.135C70.2677 108.62 70.1658 109.028 69.9619 109.359C69.765 109.689 69.438 109.921 68.981 110.055ZM76.436 108.557C75.9086 108.557 75.42 108.462 74.97 108.272C74.52 108.075 74.1297 107.805 73.7992 107.46C73.4758 107.109 73.2227 106.694 73.0399 106.216C72.8571 105.738 72.7657 105.214 72.7657 104.644C72.7657 104.075 72.8535 103.554 73.0293 103.083C73.2121 102.605 73.4653 102.194 73.7887 101.849C74.1192 101.498 74.5094 101.227 74.9594 101.037C75.4094 100.847 75.8981 100.752 76.4254 100.752C77.016 100.752 77.5469 100.872 78.018 101.111C78.4891 101.343 78.8723 101.674 79.1676 102.102C79.47 102.531 79.6563 103.031 79.7266 103.6H78.6297C78.5383 103.002 78.2957 102.538 77.902 102.208C77.5153 101.87 77.0266 101.702 76.436 101.702C75.9367 101.702 75.4938 101.825 75.1071 102.071C74.7274 102.31 74.4321 102.651 74.2211 103.094C74.0102 103.53 73.9047 104.047 73.9047 104.644C73.9047 105.235 74.0102 105.755 74.2211 106.205C74.4391 106.648 74.7379 106.993 75.1176 107.239C75.4973 107.485 75.9367 107.608 76.436 107.608C77.0266 107.608 77.5188 107.443 77.9125 107.112C78.3133 106.775 78.5559 106.307 78.6403 105.709H79.7477C79.6703 106.286 79.4805 106.789 79.1782 107.218C78.8758 107.64 78.4891 107.97 78.018 108.209C77.5539 108.441 77.0266 108.557 76.436 108.557ZM83.7078 108.452C83.6727 108.318 83.648 108.17 83.634 108.009C83.627 107.847 83.6234 107.65 83.6234 107.418H83.5707V104.855C83.5707 104.511 83.4828 104.254 83.307 104.085C83.1383 103.909 82.8676 103.822 82.4949 103.822C82.1363 103.822 81.848 103.892 81.6301 104.033C81.4191 104.173 81.2961 104.374 81.2609 104.634H80.2168C80.266 104.127 80.4945 103.723 80.9023 103.421C81.3102 103.118 81.8551 102.967 82.5371 102.967C83.2402 102.967 83.7676 103.133 84.1191 103.463C84.4707 103.786 84.6465 104.265 84.6465 104.897V107.418C84.6465 107.58 84.657 107.745 84.6781 107.914C84.6992 108.083 84.7309 108.262 84.773 108.452H83.7078ZM81.8516 108.557C81.3031 108.557 80.8672 108.424 80.5437 108.156C80.2203 107.882 80.0586 107.513 80.0586 107.049C80.0586 106.571 80.2273 106.195 80.5648 105.92C80.9094 105.639 81.4016 105.449 82.0414 105.351L83.8133 105.066V105.836L82.2102 106.089C81.8516 106.145 81.5809 106.24 81.398 106.374C81.2223 106.508 81.1344 106.701 81.1344 106.954C81.1344 107.2 81.2152 107.386 81.377 107.513C81.5457 107.633 81.7883 107.692 82.1047 107.692C82.5266 107.692 82.8746 107.59 83.1488 107.386C83.4301 107.183 83.5707 106.926 83.5707 106.617L83.7078 107.397C83.5812 107.77 83.3562 108.058 83.0328 108.262C82.7094 108.459 82.3156 108.557 81.8516 108.557ZM85.7419 108.452V103.073H86.786V104.412H86.8388V108.452H85.7419ZM86.8388 105.646L86.7017 104.37C86.8282 103.913 87.0462 103.565 87.3556 103.326C87.6649 103.087 88.0341 102.967 88.463 102.967C88.6247 102.967 88.7372 102.981 88.8005 103.009V104.043C88.7653 104.029 88.7161 104.022 88.6528 104.022C88.5896 104.015 88.5122 104.011 88.4208 104.011C87.8935 104.011 87.4962 104.149 87.229 104.423C86.9689 104.697 86.8388 105.105 86.8388 105.646ZM91.5546 108.557C91.0132 108.557 90.535 108.438 90.1202 108.199C89.7124 107.959 89.3925 107.629 89.1604 107.207C88.9284 106.785 88.8124 106.3 88.8124 105.752C88.8124 105.196 88.9249 104.711 89.1499 104.296C89.3819 103.874 89.7053 103.547 90.1202 103.315C90.535 103.083 91.0096 102.967 91.544 102.967C92.0643 102.967 92.5143 103.08 92.894 103.305C93.2807 103.523 93.5761 103.829 93.78 104.222C93.9909 104.616 94.0964 105.084 94.0964 105.625C94.0964 105.709 94.0928 105.79 94.0858 105.868C94.0858 105.938 94.0788 106.012 94.0647 106.089H89.5507V105.267H93.2948L93.0206 105.593C93.0206 105.017 92.8905 104.577 92.6303 104.275C92.3702 103.973 92.0081 103.822 91.544 103.822C91.0448 103.822 90.6475 103.994 90.3522 104.338C90.0639 104.676 89.9198 105.147 89.9198 105.752C89.9198 106.363 90.0639 106.842 90.3522 107.186C90.6475 107.531 91.0553 107.703 91.5757 107.703C91.8921 107.703 92.1663 107.64 92.3983 107.513C92.6303 107.379 92.8026 107.186 92.9151 106.933H93.9487C93.7729 107.439 93.4741 107.836 93.0522 108.125C92.6374 108.413 92.1382 108.557 91.5546 108.557ZM96.0852 108.452L98.9434 100.858H99.9138L97.1821 108.452H96.0852ZM101.96 108.452L99.2282 100.858H100.251L103.12 108.452H101.96ZM97.5302 105.425H101.601V106.353H97.5302V105.425ZM103.841 108.452V103.073H104.886V104.412H104.938V108.452H103.841ZM104.938 105.646L104.801 104.37C104.928 103.913 105.146 103.565 105.455 103.326C105.765 103.087 106.134 102.967 106.563 102.967C106.724 102.967 106.837 102.981 106.9 103.009V104.043C106.865 104.029 106.816 104.022 106.752 104.022C106.689 104.015 106.612 104.011 106.52 104.011C105.993 104.011 105.596 104.149 105.329 104.423C105.068 104.697 104.938 105.105 104.938 105.646ZM109.799 108.557C109.25 108.557 108.769 108.438 108.354 108.199C107.939 107.952 107.616 107.618 107.384 107.197C107.152 106.768 107.036 106.283 107.036 105.741C107.036 105.193 107.152 104.711 107.384 104.296C107.623 103.881 107.946 103.558 108.354 103.326C108.769 103.087 109.25 102.967 109.799 102.967C110.354 102.967 110.839 103.087 111.254 103.326C111.669 103.558 111.989 103.881 112.214 104.296C112.446 104.711 112.562 105.193 112.562 105.741C112.562 106.283 112.446 106.768 112.214 107.197C111.989 107.618 111.669 107.952 111.254 108.199C110.839 108.438 110.354 108.557 109.799 108.557ZM109.799 107.661C110.129 107.661 110.414 107.58 110.653 107.418C110.899 107.256 111.093 107.031 111.233 106.743C111.374 106.455 111.444 106.117 111.444 105.731C111.444 105.154 111.289 104.7 110.98 104.37C110.678 104.033 110.284 103.864 109.799 103.864C109.321 103.864 108.927 104.033 108.618 104.37C108.315 104.708 108.164 105.161 108.164 105.731C108.164 106.117 108.231 106.455 108.364 106.743C108.505 107.031 108.698 107.256 108.945 107.418C109.198 107.58 109.482 107.661 109.799 107.661ZM115.049 108.557C114.69 108.557 114.374 108.483 114.1 108.336C113.825 108.181 113.611 107.97 113.456 107.703C113.309 107.436 113.235 107.13 113.235 106.785V103.073H114.332V106.532C114.332 106.905 114.423 107.183 114.606 107.365C114.789 107.548 115.049 107.64 115.386 107.64C115.689 107.64 115.956 107.569 116.188 107.429C116.427 107.288 116.613 107.095 116.747 106.849C116.888 106.595 116.958 106.304 116.958 105.973L117.095 107.26C116.919 107.654 116.649 107.97 116.283 108.209C115.924 108.441 115.513 108.557 115.049 108.557ZM117 108.452V107.186H116.958V103.073H118.044V108.452H117ZM119.19 108.452V103.073H120.234V104.338H120.287V108.452H119.19ZM123.008 108.452V104.992C123.008 104.62 122.913 104.342 122.724 104.159C122.541 103.976 122.266 103.885 121.901 103.885C121.584 103.885 121.303 103.955 121.057 104.096C120.818 104.236 120.628 104.43 120.488 104.676C120.354 104.922 120.287 105.214 120.287 105.551L120.15 104.265C120.326 103.864 120.597 103.547 120.962 103.315C121.328 103.083 121.753 102.967 122.238 102.967C122.815 102.967 123.268 103.129 123.599 103.452C123.929 103.776 124.095 104.205 124.095 104.739V108.452H123.008ZM129.077 108.452V107.218L129.183 107.249C129.07 107.65 128.838 107.97 128.486 108.209C128.135 108.441 127.713 108.557 127.221 108.557C126.736 108.557 126.31 108.441 125.945 108.209C125.586 107.977 125.305 107.654 125.101 107.239C124.904 106.824 124.806 106.339 124.806 105.783C124.806 105.221 124.908 104.729 125.111 104.307C125.315 103.885 125.6 103.558 125.966 103.326C126.331 103.094 126.76 102.978 127.252 102.978C127.766 102.978 128.188 103.101 128.518 103.347C128.856 103.586 129.077 103.924 129.183 104.359L129.035 104.381V100.858H130.121V108.452H129.077ZM127.495 107.64C127.98 107.64 128.363 107.474 128.645 107.144C128.926 106.806 129.066 106.342 129.066 105.752C129.066 105.175 128.922 104.722 128.634 104.391C128.353 104.054 127.97 103.885 127.484 103.885C127.006 103.885 126.627 104.054 126.345 104.391C126.071 104.722 125.934 105.186 125.934 105.783C125.934 106.367 126.071 106.824 126.345 107.154C126.627 107.478 127.01 107.64 127.495 107.64Z" fill="black"/>
</svg>
