<svg width="49" height="69" viewBox="0 0 49 69" fill="none" xmlns="http://www.w3.org/2000/svg">
<path d="M22.8733 26.2227C24.4539 27.8033 25.7265 29.6815 26.863 31.6075C27.1187 32.0397 27.7079 32.1264 28.0802 31.7884C29.4589 30.5428 30.7793 29.2329 32.3988 28.2863C38.9156 24.4761 46.6302 26.0672 47.5902 34.3874C48.7296 44.2792 40.8296 54.2847 33.2242 59.6904C30.8466 61.3801 26.7119 63.5215 23.9784 62.6048C20.6856 61.5013 18.2033 58.2922 16.2534 53.4637L18.0762 52.3945L19.1589 54.3176C20.4464 56.2944 23.2263 60.6923 25.9074 60.5278C27.9366 60.4037 31.5315 57.7105 33.1241 56.4036C37.8673 52.5126 42.5284 46.9963 44.109 40.9415C45.4204 35.9171 45.0974 28.865 38.1993 29.3645C34.7465 29.6142 31.536 32.0382 29.3468 34.5623C29.3019 34.6132 29.2376 34.6969 29.1583 34.8046C28.146 36.1609 26.0734 36.0039 25.2599 34.519C25.2465 34.4935 25.233 34.4696 25.2181 34.4442C22.9212 30.3484 19.3921 26.4231 14.7386 25.0892C9.17883 23.4937 4.20974 26.0283 3.68337 32.0427C2.69943 43.2713 11.1183 60.6175 21.8371 64.1196C25.4813 65.31 26.537 65.3025 29.4604 64.8942L32.8444 63.9462C32.6934 63.6052 33.2601 65.3099 33.2616 65.3099C33.9046 68.024 24.8472 69.0244 19.1843 66.0143C8.00347 60.0717 0.0660981 45.5203 0.00030216 33.4453C-0.0759613 19.4921 14.3019 17.6513 22.8718 26.2242L22.8733 26.2227Z" fill="#8EC63F"/>
<path d="M26.9628 49.13C28.4417 48.2792 30.3752 48.5513 31.1977 50.1349C33.0624 53.7208 28.1113 57.027 25.1056 58.0708C24.9561 58.1231 24.7916 58.0917 24.6704 57.9886C22.8356 56.4319 20.5328 53.0912 20.3174 50.7645C19.9077 46.3397 24.7572 45.426 26.2854 48.9491C26.4006 49.2138 26.7325 49.3035 26.9628 49.13Z" fill="#1BA99D"/>
<path d="M21.1468 0.105325C33.5239 1.92668 27.9029 22.1664 16.3497 20.2897C4.31354 18.3338 9.43216 -1.61733 21.1468 0.105325ZM20.4246 3.60896C13.1182 2.6609 9.04337 15.6631 16.6637 17.0149C24.4007 18.3876 28.667 4.67664 20.4246 3.60896Z" fill="#1BA99D"/>
<path d="M22.8733 26.2227C24.4539 27.8033 25.7265 29.6815 26.863 31.6075C27.1187 32.0397 27.7079 32.1264 28.0802 31.7884C29.4589 30.5428 30.7793 29.2329 32.3988 28.2863C38.9156 24.4761 46.6302 26.0672 47.5902 34.3874C48.7296 44.2792 40.8296 54.2847 33.2242 59.6904C30.8466 61.3801 26.7119 63.5215 23.9784 62.6048C20.6856 61.5013 18.2033 58.2922 16.2534 53.4637L18.0762 52.3945L19.1589 54.3176C20.4464 56.2944 23.2263 60.6923 25.9074 60.5278C27.9366 60.4037 31.5315 57.7105 33.1241 56.4036C37.8673 52.5126 42.5284 46.9963 44.109 40.9415C45.4204 35.9171 45.0974 28.865 38.1993 29.3645C34.7465 29.6142 31.536 32.0382 29.3468 34.5623C29.3019 34.6132 29.2376 34.6969 29.1583 34.8046C28.146 36.1609 26.0734 36.0039 25.2599 34.519C25.2465 34.4935 25.233 34.4696 25.2181 34.4442C22.9212 30.3484 19.3921 26.4231 14.7386 25.0892C9.17883 23.4937 4.20974 26.0283 3.68337 32.0427C2.69943 43.2713 11.1183 60.6175 21.8371 64.1196C25.4813 65.31 26.537 65.3025 29.4604 64.8942L32.8444 63.9462C32.6934 63.6052 33.2601 65.3099 33.2616 65.3099C33.9046 68.024 24.8472 69.0244 19.1843 66.0143C8.00347 60.0717 0.0660981 45.5203 0.00030216 33.4453C-0.0759613 19.4921 14.3019 17.6513 22.8718 26.2242L22.8733 26.2227Z" fill="#8EC63F"/>
<path d="M26.9628 49.13C28.4417 48.2792 30.3752 48.5513 31.1977 50.1349C33.0624 53.7208 28.1113 57.027 25.1056 58.0708C24.9561 58.1231 24.7916 58.0917 24.6704 57.9886C22.8356 56.4319 20.5328 53.0912 20.3174 50.7645C19.9077 46.3397 24.7572 45.426 26.2854 48.9491C26.4006 49.2138 26.7325 49.3035 26.9628 49.13Z" fill="#1BA99D"/>
<path d="M21.1468 0.105325C33.5239 1.92668 27.9029 22.1664 16.3497 20.2897C4.31354 18.3338 9.43216 -1.61733 21.1468 0.105325ZM20.4246 3.60896C13.1182 2.6609 9.04337 15.6631 16.6637 17.0149C24.4007 18.3876 28.667 4.67664 20.4246 3.60896Z" fill="#1BA99D"/>
<g opacity="0.65">
<path d="M23.5179 26.9756C25.0985 28.5562 26.371 30.4344 27.5075 32.3604C27.7632 32.7926 28.3524 32.8793 28.7247 32.5414C30.1035 31.2957 31.4239 29.9858 33.0433 29.0392C39.5601 25.2291 47.2747 26.8201 48.2347 35.1403C49.3742 45.0321 41.4742 55.0376 33.8688 60.4433C31.4911 62.1331 27.3565 64.2744 24.6229 63.3578C21.3302 62.2542 18.8479 59.0452 16.8979 54.2166L18.7208 53.1475L19.8034 55.0705C21.0909 57.0474 23.8708 61.4452 26.552 61.2807C28.5812 61.1566 32.176 58.4635 33.7686 57.1565C38.5119 53.2656 43.1729 47.7492 44.7535 41.6945C46.0649 36.6701 45.7419 29.6179 38.8438 30.1174C35.391 30.3671 32.1805 32.7911 29.9913 35.3153C29.9464 35.3661 29.8821 35.4499 29.8029 35.5575C28.7905 36.9138 26.718 36.7568 25.9045 35.2719C25.891 35.2465 25.8776 35.2225 25.8626 35.1971C23.5657 31.1013 20.0367 27.176 15.3831 25.8422C9.82336 24.2466 4.85428 26.7812 4.32791 32.7956C3.34396 44.0242 11.7628 61.3704 22.4816 64.8726C26.1258 66.0629 27.1815 66.0554 30.1049 65.6472L33.489 64.6991C33.3379 64.3582 33.9047 66.0629 33.9062 66.0629C34.5492 68.777 25.4918 69.7774 19.8288 66.7672C8.648 60.8246 0.710629 46.2733 0.644833 34.1982C0.56857 20.245 14.9465 18.4042 23.5164 26.9771L23.5179 26.9756Z" fill="#8EC63F"/>
<path d="M27.6074 49.883C29.0863 49.0321 31.0198 49.3043 31.8422 50.8878C33.7069 54.4737 28.7558 57.78 25.7501 58.8237C25.6006 58.8761 25.4361 58.8447 25.315 58.7415C23.4802 57.1848 21.1773 53.8442 20.962 51.5174C20.5522 47.0926 25.4017 46.179 26.93 49.702C27.0451 49.9667 27.3771 50.0564 27.6074 49.883Z" fill="#1BA99D"/>
<path d="M21.7914 0.858255C34.1685 2.67961 28.5474 22.9193 16.9942 21.0426C4.95807 19.0867 10.0767 -0.864401 21.7914 0.858255ZM21.0691 4.36189C13.7628 3.41383 9.6879 16.416 17.3083 17.7678C25.0453 19.1405 29.3115 5.42957 21.0691 4.36189Z" fill="#1BA99D"/>
</g>
</svg>
