<svg width="132" height="132" viewBox="0 0 132 132" fill="none" xmlns="http://www.w3.org/2000/svg">
<g filter="url(#filter0_dd_4602_7694)">
<rect x="15.625" width="100" height="100" rx="50" fill="#1BA99D" fill-opacity="0.05" shape-rendering="crispEdges"/>
<rect x="17.1875" y="1.5625" width="96.875" height="96.875" rx="48.4375" stroke="white" stroke-width="3.125" shape-rendering="crispEdges"/>
<path d="M47.625 70C46.525 70 45.5833 69.6083 44.8 68.825C44.0167 68.0417 43.625 67.1 43.625 66V42C43.625 40.9 44.0167 39.9583 44.8 39.175C45.5833 38.3917 46.525 38 47.625 38H53.925L57.625 34H69.625V38H59.375L55.725 42H47.625V66H79.625V48H83.625V66C83.625 67.1 83.2333 68.0417 82.45 68.825C81.6667 69.6083 80.725 70 79.625 70H47.625ZM79.625 42V38H75.625V34H79.625V30H83.625V34H87.625V38H83.625V42H79.625ZM63.625 63C66.125 63 68.25 62.125 70 60.375C71.75 58.625 72.625 56.5 72.625 54C72.625 51.5 71.75 49.375 70 47.625C68.25 45.875 66.125 45 63.625 45C61.125 45 59 45.875 57.25 47.625C55.5 49.375 54.625 51.5 54.625 54C54.625 56.5 55.5 58.625 57.25 60.375C59 62.125 61.125 63 63.625 63ZM63.625 59C62.225 59 61.0417 58.5167 60.075 57.55C59.1083 56.5833 58.625 55.4 58.625 54C58.625 52.6 59.1083 51.4167 60.075 50.45C61.0417 49.4833 62.225 49 63.625 49C65.025 49 66.2083 49.4833 67.175 50.45C68.1417 51.4167 68.625 52.6 68.625 54C68.625 55.4 68.1417 56.5833 67.175 57.55C66.2083 58.5167 65.025 59 63.625 59Z" fill="#1BA99D" fill-opacity="0.4"/>
</g>
<rect x="88.4033" y="72.9209" width="26.3184" height="26.3184" rx="13.1592" fill="#1BA99D"/>
<rect x="88.4033" y="72.9209" width="26.3184" height="26.3184" rx="13.1592" stroke="white" stroke-width="1.80664"/>
<path d="M101.595 89.2884C102.324 89.2884 102.944 89.0332 103.454 88.5228C103.965 88.0124 104.22 87.3926 104.22 86.6634C104.22 85.9342 103.965 85.3145 103.454 84.804C102.944 84.2936 102.324 84.0384 101.595 84.0384C100.866 84.0384 100.246 84.2936 99.7357 84.804C99.2253 85.3145 98.9701 85.9342 98.9701 86.6634C98.9701 87.3926 99.2253 88.0124 99.7357 88.5228C100.246 89.0332 100.866 89.2884 101.595 89.2884ZM101.595 88.1217C101.187 88.1217 100.842 87.9808 100.56 87.6988C100.278 87.4169 100.137 87.0717 100.137 86.6634C100.137 86.2551 100.278 85.9099 100.56 85.628C100.842 85.3461 101.187 85.2051 101.595 85.2051C102.003 85.2051 102.349 85.3461 102.63 85.628C102.912 85.9099 103.053 86.2551 103.053 86.6634C103.053 87.0717 102.912 87.4169 102.63 87.6988C102.349 87.9808 102.003 88.1217 101.595 88.1217ZM96.9284 91.3301C96.6076 91.3301 96.3329 91.2158 96.1044 90.9874C95.876 90.7589 95.7617 90.4842 95.7617 90.1634V83.1634C95.7617 82.8426 95.876 82.5679 96.1044 82.3395C96.3329 82.111 96.6076 81.9967 96.9284 81.9967H98.7659L99.8451 80.8301H103.345L104.424 81.9967H106.262C106.583 81.9967 106.857 82.111 107.086 82.3395C107.314 82.5679 107.428 82.8426 107.428 83.1634V90.1634C107.428 90.4842 107.314 90.7589 107.086 90.9874C106.857 91.2158 106.583 91.3301 106.262 91.3301H96.9284ZM96.9284 90.1634H106.262V83.1634H103.899L102.835 81.9967H100.355L99.2909 83.1634H96.9284V90.1634Z" fill="white"/>
<defs>
<filter id="filter0_dd_4602_7694" x="-1.66893e-06" y="-7.15256e-07" width="131.25" height="131.25" filterUnits="userSpaceOnUse" color-interpolation-filters="sRGB">
<feFlood flood-opacity="0" result="BackgroundImageFix"/>
<feColorMatrix in="SourceAlpha" type="matrix" values="0 0 0 0 0 0 0 0 0 0 0 0 0 0 0 0 0 0 127 0" result="hardAlpha"/>
<feMorphology radius="4.6875" operator="erode" in="SourceAlpha" result="effect1_dropShadow_4602_7694"/>
<feOffset dy="6.25"/>
<feGaussianBlur stdDeviation="3.90625"/>
<feComposite in2="hardAlpha" operator="out"/>
<feColorMatrix type="matrix" values="0 0 0 0 0 0 0 0 0 0 0 0 0 0 0 0 0 0 0.1 0"/>
<feBlend mode="normal" in2="BackgroundImageFix" result="effect1_dropShadow_4602_7694"/>
<feColorMatrix in="SourceAlpha" type="matrix" values="0 0 0 0 0 0 0 0 0 0 0 0 0 0 0 0 0 0 127 0" result="hardAlpha"/>
<feMorphology radius="3.90625" operator="erode" in="SourceAlpha" result="effect2_dropShadow_4602_7694"/>
<feOffset dy="15.625"/>
<feGaussianBlur stdDeviation="9.76563"/>
<feComposite in2="hardAlpha" operator="out"/>
<feColorMatrix type="matrix" values="0 0 0 0 0 0 0 0 0 0 0 0 0 0 0 0 0 0 0.1 0"/>
<feBlend mode="normal" in2="effect1_dropShadow_4602_7694" result="effect2_dropShadow_4602_7694"/>
<feBlend mode="normal" in="SourceGraphic" in2="effect2_dropShadow_4602_7694" result="shape"/>
</filter>
</defs>
</svg>
