<svg width="157" height="121" viewBox="0 0 157 121" fill="none" xmlns="http://www.w3.org/2000/svg">
<g filter="url(#filter0_d_4602_7463)">
<path d="M76.9202 26.2227C78.5008 27.8033 79.7734 29.6815 80.9098 31.6075C81.1656 32.0397 81.7547 32.1264 82.1271 31.7884C83.5058 30.5428 84.8262 29.2329 86.4457 28.2863C92.9625 24.4761 100.677 26.0672 101.637 34.3874C102.777 44.2792 94.8765 54.2847 87.2711 59.6904C84.8935 61.3801 80.7588 63.5215 78.0253 62.6048C74.7325 61.5013 72.2502 58.2922 70.3003 53.4637L72.1231 52.3945L73.2057 54.3176C74.4933 56.2944 77.2731 60.6923 79.9543 60.5278C81.9835 60.4037 85.5784 57.7105 87.1709 56.4036C91.9142 52.5126 96.5752 46.9963 98.1558 40.9415C99.4673 35.9171 99.1443 28.865 92.2462 29.3645C88.7934 29.6142 85.5829 32.0382 83.3936 34.5623C83.3488 34.6132 83.2845 34.6969 83.2052 34.8046C82.1929 36.1609 80.1203 36.0039 79.3068 34.519C79.2934 34.4935 79.2799 34.4696 79.2649 34.4442C76.9681 30.3484 73.439 26.4231 68.7855 25.0892C63.2257 23.4937 58.2566 26.0283 57.7302 32.0427C56.7463 43.2713 65.1652 60.6175 75.8839 64.1196C79.5281 65.31 80.5839 65.3025 83.5073 64.8942L86.8913 63.9462C86.7403 63.6052 87.307 65.3099 87.3085 65.3099C87.9515 68.024 78.8941 69.0244 73.2312 66.0143C62.0503 60.0717 54.113 45.5203 54.0472 33.4453C53.9709 19.4921 68.3488 17.6513 76.9187 26.2242L76.9202 26.2227Z" fill="#8EC63F"/>
<path d="M81.0097 49.13C82.4886 48.2792 84.4221 48.5513 85.2446 50.1349C87.1093 53.7208 82.1581 57.027 79.1525 58.0708C79.0029 58.1231 78.8384 58.0917 78.7173 57.9886C76.8825 56.4319 74.5796 53.0912 74.3643 50.7645C73.9546 46.3397 78.804 45.426 80.3323 48.9491C80.4474 49.2138 80.7794 49.3035 81.0097 49.13Z" fill="#1BA99D"/>
<path d="M75.1937 0.105325C87.5708 1.92668 81.9497 22.1664 70.3966 20.2897C58.3604 18.3338 63.479 -1.61733 75.1937 0.105325ZM74.4714 3.60896C67.1651 2.6609 63.0902 15.6631 70.7106 17.0149C78.4476 18.3876 82.7139 4.67664 74.4714 3.60896Z" fill="#1BA99D"/>
<path d="M76.9202 26.2227C78.5008 27.8033 79.7734 29.6815 80.9098 31.6075C81.1656 32.0397 81.7547 32.1264 82.1271 31.7884C83.5058 30.5428 84.8262 29.2329 86.4457 28.2863C92.9625 24.4761 100.677 26.0672 101.637 34.3874C102.777 44.2792 94.8765 54.2847 87.2711 59.6904C84.8935 61.3801 80.7588 63.5215 78.0253 62.6048C74.7325 61.5013 72.2502 58.2922 70.3003 53.4637L72.1231 52.3945L73.2057 54.3176C74.4933 56.2944 77.2731 60.6923 79.9543 60.5278C81.9835 60.4037 85.5784 57.7105 87.1709 56.4036C91.9142 52.5126 96.5752 46.9963 98.1558 40.9415C99.4673 35.9171 99.1443 28.865 92.2462 29.3645C88.7934 29.6142 85.5829 32.0382 83.3936 34.5623C83.3488 34.6132 83.2845 34.6969 83.2052 34.8046C82.1929 36.1609 80.1203 36.0039 79.3068 34.519C79.2934 34.4935 79.2799 34.4696 79.2649 34.4442C76.9681 30.3484 73.439 26.4231 68.7855 25.0892C63.2257 23.4937 58.2566 26.0283 57.7302 32.0427C56.7463 43.2713 65.1652 60.6175 75.8839 64.1196C79.5281 65.31 80.5839 65.3025 83.5073 64.8942L86.8913 63.9462C86.7403 63.6052 87.307 65.3099 87.3085 65.3099C87.9515 68.024 78.8941 69.0244 73.2312 66.0143C62.0503 60.0717 54.113 45.5203 54.0472 33.4453C53.9709 19.4921 68.3488 17.6513 76.9187 26.2242L76.9202 26.2227Z" fill="#8EC63F"/>
<path d="M81.0097 49.13C82.4886 48.2792 84.4221 48.5513 85.2446 50.1349C87.1093 53.7208 82.1581 57.027 79.1525 58.0708C79.0029 58.1231 78.8384 58.0917 78.7173 57.9886C76.8825 56.4319 74.5796 53.0912 74.3643 50.7645C73.9546 46.3397 78.804 45.426 80.3323 48.9491C80.4474 49.2138 80.7794 49.3035 81.0097 49.13Z" fill="#1BA99D"/>
<path d="M75.1937 0.105325C87.5708 1.92668 81.9497 22.1664 70.3966 20.2897C58.3604 18.3338 63.479 -1.61733 75.1937 0.105325ZM74.4714 3.60896C67.1651 2.6609 63.0902 15.6631 70.7106 17.0149C78.4476 18.3876 82.7139 4.67664 74.4714 3.60896Z" fill="#1BA99D"/>
<g opacity="0.65">
<path d="M77.5648 26.9756C79.1453 28.5562 80.4179 30.4344 81.5544 32.3604C81.8101 32.7926 82.3993 32.8793 82.7716 32.5414C84.1503 31.2957 85.4707 29.9858 87.0902 29.0392C93.607 25.2291 101.322 26.8201 102.282 35.1403C103.421 45.0321 95.5211 55.0376 87.9156 60.4433C85.538 62.1331 81.4033 64.2744 78.6698 63.3578C75.377 62.2542 72.8947 59.0452 70.9448 54.2166L72.7676 53.1475L73.8503 55.0705C75.1378 57.0474 77.9177 61.4452 80.5988 61.2807C82.628 61.1566 86.2229 58.4635 87.8155 57.1565C92.5587 53.2656 97.2198 47.7492 98.8004 41.6945C100.112 36.6701 99.7888 29.6179 92.8907 30.1174C89.4379 30.3671 86.2274 32.7911 84.0382 35.3153C83.9933 35.3661 83.929 35.4499 83.8498 35.5575C82.8374 36.9138 80.7648 36.7568 79.9513 35.2719C79.9379 35.2465 79.9244 35.2225 79.9095 35.1971C77.6126 31.1013 74.0836 27.176 69.43 25.8422C63.8702 24.2466 58.9012 26.7812 58.3748 32.7956C57.3908 44.0242 65.8097 61.3704 76.5285 64.8726C80.1727 66.0629 81.2284 66.0554 84.1518 65.6472L87.5358 64.6991C87.3848 64.3582 87.9515 66.0629 87.953 66.0629C88.596 68.777 79.5386 69.7774 73.8757 66.7672C62.6949 60.8246 54.7575 46.2733 54.6917 34.1982C54.6154 20.245 68.9933 18.4042 77.5633 26.9771L77.5648 26.9756Z" fill="#8EC63F"/>
<path d="M81.6542 49.883C83.1331 49.0321 85.0667 49.3043 85.8891 50.8878C87.7538 54.4737 82.8027 57.78 79.797 58.8237C79.6475 58.8761 79.483 58.8447 79.3618 58.7415C77.527 57.1848 75.2242 53.8442 75.0088 51.5174C74.5991 47.0926 79.4486 46.179 80.9768 49.702C81.092 49.9667 81.424 50.0564 81.6542 49.883Z" fill="#1BA99D"/>
<path d="M75.8382 0.858255C88.2153 2.67961 82.5943 22.9193 71.0411 21.0426C59.0049 19.0867 64.1236 -0.864401 75.8382 0.858255ZM75.116 4.36189C67.8096 3.41383 63.7348 16.416 71.3551 17.7678C79.0921 19.1405 83.3584 5.42957 75.116 4.36189Z" fill="#1BA99D"/>
</g>
<path d="M4.45781 81.5657V81.5142H8.96094C12.1063 81.5142 14.8219 83.9548 14.8219 87.6329C14.8219 91.4657 12.1063 93.8892 8.96094 93.8892H4.45781V93.8204C4.52656 93.511 4.85313 92.3938 4.85313 91.3282V84.0751C4.85313 82.9923 4.52656 81.8923 4.45781 81.5657ZM8.39375 82.1673H7.00156V93.2188H8.39375C11.0234 93.2188 12.4156 90.7095 12.3984 87.6329C12.3813 84.6595 11.0234 82.1673 8.39375 82.1673ZM17.3799 83.6282C16.658 83.6282 16.0392 83.0438 16.0392 82.3048C16.0392 81.5657 16.6408 80.9813 17.3799 80.9813C18.1189 80.9813 18.7377 81.5657 18.7377 82.3048C18.7377 83.0438 18.1189 83.6282 17.3799 83.6282ZM18.8752 93.8204V93.8892H16.0736V93.8204C16.1424 93.511 16.4689 92.3938 16.4689 91.3282V87.8563C16.4689 86.7735 16.1424 85.6735 16.0736 85.347V85.2954H18.4799V91.3282C18.4799 92.3938 18.8064 93.511 18.8752 93.8204ZM21.0248 87.6501C20.5951 86.6704 19.9936 85.6735 19.7014 85.347V85.2954H23.1733V85.347C23.0701 85.6563 22.8123 86.6188 23.2076 87.547L25.0467 91.9813L26.817 87.5642C27.1951 86.636 26.9029 85.6563 26.7826 85.347V85.2954H28.6904V85.347C28.5701 85.5532 28.0201 86.4298 27.6592 87.2892L25.0295 93.8892H23.6717L21.0248 87.6501ZM30.9251 83.6282C30.2032 83.6282 29.5845 83.0438 29.5845 82.3048C29.5845 81.5657 30.186 80.9813 30.9251 80.9813C31.6642 80.9813 32.2829 81.5657 32.2829 82.3048C32.2829 83.0438 31.6642 83.6282 30.9251 83.6282ZM32.4204 93.8204V93.8892H29.6188V93.8204C29.6876 93.511 30.0142 92.3938 30.0142 91.3282V87.8563C30.0142 86.7735 29.6876 85.6735 29.6188 85.347V85.2954H32.0251V91.3282C32.0251 92.3938 32.3517 93.511 32.4204 93.8204ZM36.5466 93.8204V93.8892H33.745V93.8204C33.8138 93.511 34.1404 92.3938 34.1404 91.3282V87.8563C34.1404 86.7735 33.8138 85.6735 33.745 85.347V85.2954H36.1513V86.7735C36.8216 85.811 37.7325 85.1923 38.9357 85.1923C40.3966 85.1923 41.7544 86.0517 41.7544 88.097V91.3282C41.7544 92.3938 42.081 93.511 42.1497 93.8204V93.8892H39.331V93.8204C39.3997 93.511 39.7263 92.3938 39.7263 91.3282V88.3548C39.7263 87.0313 38.9185 86.4985 38.0419 86.4813C37.3716 86.4813 36.7529 86.7735 36.1513 87.2892V91.3282C36.1513 92.3938 36.4779 93.511 36.5466 93.8204ZM47.265 94.0438C45.1166 94.0438 43.1057 92.4798 43.1057 89.5923C43.1057 86.8767 44.8588 85.1923 47.265 85.1923C49.8088 85.1923 51.0463 87.1001 51.0463 89.3517H45.3228C45.4432 91.2938 46.3197 92.6688 48.1416 92.6688C49.0697 92.6688 49.9291 92.3423 50.926 91.5001L50.9775 91.5517C50.4619 92.8235 49.1385 94.0438 47.265 94.0438ZM47.2307 85.811C45.8557 85.811 45.3057 87.3407 45.3057 88.9392L48.9838 88.5438C48.9322 87.0657 48.451 85.811 47.2307 85.811Z" fill="#1BA99D"/>
<path d="M61.5171 93.8892L57.5124 83.7485C57.4952 83.9032 57.4952 84.0579 57.4952 84.2126V90.0048C57.4952 91.672 58.2687 93.4938 58.3546 93.8032V93.8892H55.8452V93.8032C55.9312 93.4938 56.7046 91.672 56.7046 90.0048V84.2126C56.7046 83.061 56.1202 81.8235 56.0515 81.5829V81.5142H59.2483L62.8749 90.572L66.2608 81.5142H69.2687V81.5829C69.2171 81.8063 68.8218 83.0438 68.8218 84.1954V91.2079C68.8218 92.3595 69.2171 93.597 69.2687 93.8204V93.8892H65.814V93.8204C65.8655 93.597 66.2608 92.3595 66.2608 91.2079V83.7142L62.4624 93.8892H61.5171ZM74.714 94.061C72.3078 94.061 70.2453 92.5142 70.2453 89.5407C70.2453 86.5845 72.3078 85.1407 74.714 85.1407C77.1031 85.1407 79.1999 86.6017 79.1999 89.5407C79.1999 92.5142 77.1031 94.061 74.714 94.061ZM74.714 93.3735C75.9687 93.3735 76.4843 91.4313 76.4843 89.5407C76.4843 87.6673 75.9687 85.811 74.714 85.811C73.4421 85.811 72.9609 87.6845 72.9609 89.5407C72.9609 91.4142 73.4421 93.3735 74.714 93.3735ZM83.23 94.061C81.7863 94.061 80.9441 93.0642 80.9441 91.3626V85.9829H79.6894V85.3126C81.4081 84.5907 82.4222 83.5595 83.2644 82.3735H83.3675V85.2438H85.705V85.9829H83.3675V91.122C83.3675 92.0329 83.8488 92.4454 84.5535 92.4454C84.9144 92.4454 85.3956 92.3423 85.8941 92.0673C85.4816 93.0985 84.6566 94.061 83.23 94.061ZM89.9663 93.8204V93.8892H86.6663V93.8204C86.7179 93.597 87.1132 92.3595 87.1132 91.2079V84.0407C87.1132 82.8892 86.7007 81.7032 86.6147 81.4798L86.5976 81.411L87.0444 81.3423L89.5366 81.0501V86.6532C90.1897 85.7595 91.0835 85.1407 92.2866 85.1407C93.7991 85.1407 95.1226 86.0517 95.1226 88.0282V91.2079C95.1226 92.3595 95.5179 93.597 95.5522 93.8204V93.8892H92.2522V93.8204C92.3038 93.597 92.6991 92.3595 92.6991 91.2079V88.3548C92.6991 87.1345 91.9257 86.6704 91.0835 86.6704C90.5507 86.6704 90.0351 86.8595 89.5366 87.186V91.2079C89.5366 92.3595 89.9319 93.597 89.9663 93.8204ZM100.709 94.061C98.5782 94.061 96.4126 92.5829 96.4126 89.5751C96.4126 86.8079 98.2172 85.1407 100.744 85.1407C103.528 85.1407 104.663 87.2032 104.663 89.3688H99.0766C99.2485 91.1735 100.056 92.4626 101.809 92.4626C102.703 92.4626 103.511 92.1704 104.491 91.4313L104.559 91.4657C104.095 92.686 102.772 94.061 100.709 94.061ZM99.0594 88.7501C99.0594 88.8188 99.0594 88.8876 99.0594 88.9563L102.239 88.4579C102.205 87.1173 101.861 85.811 100.709 85.811C99.4547 85.811 99.0422 87.3063 99.0594 88.7501ZM108.966 93.8204V93.8892H105.649V93.8204C105.7 93.597 106.095 92.3595 106.095 91.2079V87.9251C106.095 86.7735 105.7 85.536 105.649 85.2954V85.2438H108.519V86.8767C109.155 85.5876 110.341 84.6423 112.111 85.2095L111.733 87.8392H111.647C110.891 87.0657 109.688 86.4985 108.519 87.3407V91.2079C108.519 92.3595 108.914 93.597 108.966 93.8204ZM116.1 93.8204V93.8892H112.8V93.8204C112.852 93.597 113.247 92.3595 113.247 91.2079V84.0407C113.247 82.8892 112.834 81.7032 112.748 81.4798L112.731 81.411L113.178 81.3423L115.67 81.0501V86.6532C116.323 85.7595 117.217 85.1407 118.42 85.1407C119.933 85.1407 121.256 86.0517 121.256 88.0282V91.2079C121.256 92.3595 121.652 93.597 121.686 93.8204V93.8892H118.386V93.8204C118.438 93.597 118.833 92.3595 118.833 91.2079V88.3548C118.833 87.1345 118.059 86.6704 117.217 86.6704C116.684 86.6704 116.169 86.8595 115.67 87.186V91.2079C115.67 92.3595 116.066 93.597 116.1 93.8204ZM127.015 94.061C124.609 94.061 122.546 92.5142 122.546 89.5407C122.546 86.5845 124.609 85.1407 127.015 85.1407C129.404 85.1407 131.501 86.6017 131.501 89.5407C131.501 92.5142 129.404 94.061 127.015 94.061ZM127.015 93.3735C128.27 93.3735 128.785 91.4313 128.785 89.5407C128.785 87.6673 128.27 85.811 127.015 85.811C125.743 85.811 125.262 87.6845 125.262 89.5407C125.262 91.4142 125.743 93.3735 127.015 93.3735ZM136.968 94.061C134.562 94.061 132.5 92.5142 132.5 89.5407C132.5 86.5845 134.562 85.1407 136.968 85.1407C139.357 85.1407 141.454 86.6017 141.454 89.5407C141.454 92.5142 139.357 94.061 136.968 94.061ZM136.968 93.3735C138.223 93.3735 138.739 91.4313 138.739 89.5407C138.739 87.6673 138.223 85.811 136.968 85.811C135.696 85.811 135.215 87.6845 135.215 89.5407C135.215 91.4142 135.696 93.3735 136.968 93.3735ZM149.087 93.8892C148.915 93.4595 148.692 93.1329 148.554 92.6173C147.833 93.6829 146.819 94.0438 145.925 94.0438C144.172 94.0438 142.47 92.5829 142.47 89.5751C142.47 86.5845 144.154 85.1407 145.959 85.1407C146.939 85.1407 147.884 85.5704 148.451 86.4298V84.0407C148.451 82.8892 147.867 81.7032 147.781 81.4798L147.764 81.4282L148.383 81.3423L150.875 81.0501V91.2079C150.875 92.3595 151.27 93.597 151.322 93.8204V93.8892H149.087ZM145.1 89.5235C145.1 91.1735 145.564 92.8063 146.99 92.8063C147.506 92.8063 147.987 92.5657 148.469 92.136C148.451 91.9985 148.451 91.8267 148.451 91.6548V87.1173C148.039 86.7563 147.558 86.5157 147.025 86.5157C145.701 86.5157 145.1 87.8392 145.1 89.5235Z" fill="#8EC63F"/>
<path d="M21.9992 108.452V100.858H23.1172V108.452H21.9992ZM22.5477 108.452V107.534H26.9352V108.452H22.5477ZM27.5204 108.452V103.073H28.6172V108.452H27.5204ZM27.4676 102.018V100.784H28.6805V102.018H27.4676ZM30.1577 108.452V102.45C30.1577 101.902 30.3124 101.484 30.6217 101.195C30.9311 100.9 31.3952 100.752 32.0139 100.752C32.1546 100.752 32.2706 100.759 32.362 100.774C32.4534 100.788 32.5342 100.809 32.6046 100.837V101.681C32.5553 101.667 32.4885 101.652 32.4042 101.638C32.3268 101.624 32.2389 101.617 32.1405 101.617C31.8311 101.617 31.6061 101.695 31.4655 101.849C31.3249 101.997 31.2546 102.208 31.2546 102.482V108.452H30.1577ZM29.1241 103.948V103.073H32.4885V103.948H29.1241ZM35.2598 108.557C34.7184 108.557 34.2403 108.438 33.8255 108.199C33.4176 107.959 33.0977 107.629 32.8657 107.207C32.6337 106.785 32.5176 106.3 32.5176 105.752C32.5176 105.196 32.6301 104.711 32.8551 104.296C33.0872 103.874 33.4106 103.547 33.8255 103.315C34.2403 103.083 34.7149 102.967 35.2493 102.967C35.7696 102.967 36.2196 103.08 36.5993 103.305C36.986 103.523 37.2813 103.829 37.4852 104.222C37.6962 104.616 37.8016 105.084 37.8016 105.625C37.8016 105.709 37.7981 105.79 37.7911 105.868C37.7911 105.938 37.7841 106.012 37.77 106.089H33.2559V105.267H37.0001L36.7259 105.593C36.7259 105.017 36.5958 104.577 36.3356 104.275C36.0755 103.973 35.7134 103.822 35.2493 103.822C34.7501 103.822 34.3528 103.994 34.0575 104.338C33.7692 104.676 33.6251 105.147 33.6251 105.752C33.6251 106.363 33.7692 106.842 34.0575 107.186C34.3528 107.531 34.7606 107.703 35.2809 107.703C35.5973 107.703 35.8716 107.64 36.1036 107.513C36.3356 107.379 36.5079 107.186 36.6204 106.933H37.654C37.4782 107.439 37.1794 107.836 36.7575 108.125C36.3426 108.413 35.8434 108.557 35.2598 108.557ZM42.1319 108.452L39.9276 100.858H41.0667L42.9968 107.85H42.7225L44.5577 100.858H45.8761L47.7218 107.85H47.4475L49.3776 100.858H50.4534L48.2491 108.452H46.9413L45.085 101.649H45.3065L43.4397 108.452H42.1319ZM51.1208 108.452V103.073H52.2176V108.452H51.1208ZM51.068 102.018V100.784H52.2809V102.018H51.068ZM55.6143 108.557C54.9885 108.557 54.528 108.413 54.2327 108.125C53.9444 107.829 53.8003 107.397 53.8003 106.827V101.839L54.8866 101.427V106.838C54.8866 107.119 54.9604 107.327 55.1081 107.46C55.2557 107.594 55.4948 107.661 55.8253 107.661C55.9518 107.661 56.0643 107.65 56.1628 107.629C56.2612 107.608 56.3456 107.583 56.4159 107.555V108.441C56.3385 108.476 56.2296 108.504 56.0889 108.525C55.9483 108.547 55.7901 108.557 55.6143 108.557ZM52.7245 103.948V103.073H56.4159V103.948H52.7245ZM57.0652 108.452V100.858H58.1621V108.452H57.0652ZM60.8832 108.452V104.992C60.8832 104.62 60.7882 104.342 60.5984 104.159C60.4156 103.976 60.1414 103.885 59.7757 103.885C59.4593 103.885 59.1781 103.955 58.932 104.096C58.6929 104.236 58.5031 104.43 58.3625 104.676C58.2289 104.922 58.1621 105.214 58.1621 105.551L58.025 104.265C58.2007 103.864 58.4714 103.547 58.8371 103.315C59.2027 103.083 59.6281 102.967 60.1132 102.967C60.6898 102.967 61.1433 103.129 61.4738 103.452C61.8043 103.776 61.9695 104.205 61.9695 104.739V108.452H60.8832ZM63.0501 108.452V103.073H64.147V108.452H63.0501ZM62.9973 102.018V100.784H64.2102V102.018H62.9973ZM65.2962 108.452V103.073H66.3403V104.338H66.393V108.452H65.2962ZM69.1141 108.452V104.992C69.1141 104.62 69.0192 104.342 68.8294 104.159C68.6466 103.976 68.3723 103.885 68.0067 103.885C67.6903 103.885 67.4091 103.955 67.163 104.096C66.9239 104.236 66.7341 104.43 66.5934 104.676C66.4598 104.922 66.393 105.214 66.393 105.551L66.2559 104.265C66.4317 103.864 66.7024 103.547 67.068 103.315C67.4337 103.083 67.8591 102.967 68.3442 102.967C68.9208 102.967 69.3743 103.129 69.7048 103.452C70.0352 103.776 70.2005 104.205 70.2005 104.739V108.452H69.1141ZM72.981 110.055V109.506C73.2271 109.422 73.3959 109.292 73.4873 109.116C73.5857 108.947 73.6349 108.701 73.6349 108.378L74.0673 108.452H72.9705V107.154H74.2677V108.135C74.2677 108.62 74.1658 109.028 73.9619 109.359C73.765 109.689 73.438 109.921 72.981 110.055ZM80.436 108.557C79.9086 108.557 79.42 108.462 78.97 108.272C78.52 108.075 78.1297 107.805 77.7992 107.46C77.4758 107.109 77.2227 106.694 77.0399 106.216C76.8571 105.738 76.7657 105.214 76.7657 104.644C76.7657 104.075 76.8535 103.554 77.0293 103.083C77.2121 102.605 77.4653 102.194 77.7887 101.849C78.1192 101.498 78.5094 101.227 78.9594 101.037C79.4094 100.847 79.8981 100.752 80.4254 100.752C81.016 100.752 81.5469 100.872 82.018 101.111C82.4891 101.343 82.8723 101.674 83.1676 102.102C83.47 102.531 83.6563 103.031 83.7266 103.6H82.6297C82.5383 103.002 82.2957 102.538 81.902 102.208C81.5153 101.87 81.0266 101.702 80.436 101.702C79.9367 101.702 79.4938 101.825 79.1071 102.071C78.7274 102.31 78.4321 102.651 78.2211 103.094C78.0102 103.53 77.9047 104.047 77.9047 104.644C77.9047 105.235 78.0102 105.755 78.2211 106.205C78.4391 106.648 78.7379 106.993 79.1176 107.239C79.4973 107.485 79.9367 107.608 80.436 107.608C81.0266 107.608 81.5188 107.443 81.9125 107.112C82.3133 106.775 82.5559 106.307 82.6403 105.709H83.7477C83.6703 106.286 83.4805 106.789 83.1782 107.218C82.8758 107.64 82.4891 107.97 82.018 108.209C81.5539 108.441 81.0266 108.557 80.436 108.557ZM87.7078 108.452C87.6727 108.318 87.648 108.17 87.634 108.009C87.627 107.847 87.6234 107.65 87.6234 107.418H87.5707V104.855C87.5707 104.511 87.4828 104.254 87.307 104.085C87.1383 103.909 86.8676 103.822 86.4949 103.822C86.1363 103.822 85.848 103.892 85.6301 104.033C85.4191 104.173 85.2961 104.374 85.2609 104.634H84.2168C84.266 104.127 84.4945 103.723 84.9023 103.421C85.3102 103.118 85.8551 102.967 86.5371 102.967C87.2402 102.967 87.7676 103.133 88.1191 103.463C88.4707 103.786 88.6465 104.265 88.6465 104.897V107.418C88.6465 107.58 88.657 107.745 88.6781 107.914C88.6992 108.083 88.7309 108.262 88.773 108.452H87.7078ZM85.8516 108.557C85.3031 108.557 84.8672 108.424 84.5437 108.156C84.2203 107.882 84.0586 107.513 84.0586 107.049C84.0586 106.571 84.2273 106.195 84.5648 105.92C84.9094 105.639 85.4016 105.449 86.0414 105.351L87.8133 105.066V105.836L86.2102 106.089C85.8516 106.145 85.5809 106.24 85.398 106.374C85.2223 106.508 85.1344 106.701 85.1344 106.954C85.1344 107.2 85.2152 107.386 85.377 107.513C85.5457 107.633 85.7883 107.692 86.1047 107.692C86.5266 107.692 86.8746 107.59 87.1488 107.386C87.4301 107.183 87.5707 106.926 87.5707 106.617L87.7078 107.397C87.5812 107.77 87.3562 108.058 87.0328 108.262C86.7094 108.459 86.3156 108.557 85.8516 108.557ZM89.7419 108.452V103.073H90.786V104.412H90.8388V108.452H89.7419ZM90.8388 105.646L90.7017 104.37C90.8282 103.913 91.0462 103.565 91.3556 103.326C91.6649 103.087 92.0341 102.967 92.463 102.967C92.6247 102.967 92.7372 102.981 92.8005 103.009V104.043C92.7653 104.029 92.7161 104.022 92.6528 104.022C92.5896 104.015 92.5122 104.011 92.4208 104.011C91.8935 104.011 91.4962 104.149 91.229 104.423C90.9689 104.697 90.8388 105.105 90.8388 105.646ZM95.5546 108.557C95.0132 108.557 94.535 108.438 94.1202 108.199C93.7124 107.959 93.3925 107.629 93.1604 107.207C92.9284 106.785 92.8124 106.3 92.8124 105.752C92.8124 105.196 92.9249 104.711 93.1499 104.296C93.3819 103.874 93.7053 103.547 94.1202 103.315C94.535 103.083 95.0096 102.967 95.544 102.967C96.0643 102.967 96.5143 103.08 96.894 103.305C97.2807 103.523 97.5761 103.829 97.78 104.222C97.9909 104.616 98.0964 105.084 98.0964 105.625C98.0964 105.709 98.0928 105.79 98.0858 105.868C98.0858 105.938 98.0788 106.012 98.0647 106.089H93.5507V105.267H97.2948L97.0206 105.593C97.0206 105.017 96.8905 104.577 96.6303 104.275C96.3702 103.973 96.0081 103.822 95.544 103.822C95.0448 103.822 94.6475 103.994 94.3522 104.338C94.0639 104.676 93.9198 105.147 93.9198 105.752C93.9198 106.363 94.0639 106.842 94.3522 107.186C94.6475 107.531 95.0553 107.703 95.5757 107.703C95.8921 107.703 96.1663 107.64 96.3983 107.513C96.6303 107.379 96.8026 107.186 96.9151 106.933H97.9487C97.7729 107.439 97.4741 107.836 97.0522 108.125C96.6374 108.413 96.1382 108.557 95.5546 108.557ZM100.085 108.452L102.943 100.858H103.914L101.182 108.452H100.085ZM105.96 108.452L103.228 100.858H104.251L107.12 108.452H105.96ZM101.53 105.425H105.601V106.353H101.53V105.425ZM107.841 108.452V103.073H108.886V104.412H108.938V108.452H107.841ZM108.938 105.646L108.801 104.37C108.928 103.913 109.146 103.565 109.455 103.326C109.765 103.087 110.134 102.967 110.563 102.967C110.724 102.967 110.837 102.981 110.9 103.009V104.043C110.865 104.029 110.816 104.022 110.752 104.022C110.689 104.015 110.612 104.011 110.52 104.011C109.993 104.011 109.596 104.149 109.329 104.423C109.068 104.697 108.938 105.105 108.938 105.646ZM113.799 108.557C113.25 108.557 112.769 108.438 112.354 108.199C111.939 107.952 111.616 107.618 111.384 107.197C111.152 106.768 111.036 106.283 111.036 105.741C111.036 105.193 111.152 104.711 111.384 104.296C111.623 103.881 111.946 103.558 112.354 103.326C112.769 103.087 113.25 102.967 113.799 102.967C114.354 102.967 114.839 103.087 115.254 103.326C115.669 103.558 115.989 103.881 116.214 104.296C116.446 104.711 116.562 105.193 116.562 105.741C116.562 106.283 116.446 106.768 116.214 107.197C115.989 107.618 115.669 107.952 115.254 108.199C114.839 108.438 114.354 108.557 113.799 108.557ZM113.799 107.661C114.129 107.661 114.414 107.58 114.653 107.418C114.899 107.256 115.093 107.031 115.233 106.743C115.374 106.455 115.444 106.117 115.444 105.731C115.444 105.154 115.289 104.7 114.98 104.37C114.678 104.033 114.284 103.864 113.799 103.864C113.321 103.864 112.927 104.033 112.618 104.37C112.315 104.708 112.164 105.161 112.164 105.731C112.164 106.117 112.231 106.455 112.364 106.743C112.505 107.031 112.698 107.256 112.945 107.418C113.198 107.58 113.482 107.661 113.799 107.661ZM119.049 108.557C118.69 108.557 118.374 108.483 118.1 108.336C117.825 108.181 117.611 107.97 117.456 107.703C117.309 107.436 117.235 107.13 117.235 106.785V103.073H118.332V106.532C118.332 106.905 118.423 107.183 118.606 107.365C118.789 107.548 119.049 107.64 119.386 107.64C119.689 107.64 119.956 107.569 120.188 107.429C120.427 107.288 120.613 107.095 120.747 106.849C120.888 106.595 120.958 106.304 120.958 105.973L121.095 107.26C120.919 107.654 120.649 107.97 120.283 108.209C119.924 108.441 119.513 108.557 119.049 108.557ZM121 108.452V107.186H120.958V103.073H122.044V108.452H121ZM123.19 108.452V103.073H124.234V104.338H124.287V108.452H123.19ZM127.008 108.452V104.992C127.008 104.62 126.913 104.342 126.724 104.159C126.541 103.976 126.266 103.885 125.901 103.885C125.584 103.885 125.303 103.955 125.057 104.096C124.818 104.236 124.628 104.43 124.488 104.676C124.354 104.922 124.287 105.214 124.287 105.551L124.15 104.265C124.326 103.864 124.597 103.547 124.962 103.315C125.328 103.083 125.753 102.967 126.238 102.967C126.815 102.967 127.268 103.129 127.599 103.452C127.929 103.776 128.095 104.205 128.095 104.739V108.452H127.008ZM133.077 108.452V107.218L133.183 107.249C133.07 107.65 132.838 107.97 132.486 108.209C132.135 108.441 131.713 108.557 131.221 108.557C130.736 108.557 130.31 108.441 129.945 108.209C129.586 107.977 129.305 107.654 129.101 107.239C128.904 106.824 128.806 106.339 128.806 105.783C128.806 105.221 128.908 104.729 129.111 104.307C129.315 103.885 129.6 103.558 129.966 103.326C130.331 103.094 130.76 102.978 131.252 102.978C131.766 102.978 132.188 103.101 132.518 103.347C132.856 103.586 133.077 103.924 133.183 104.359L133.035 104.381V100.858H134.121V108.452H133.077ZM131.495 107.64C131.98 107.64 132.363 107.474 132.645 107.144C132.926 106.806 133.066 106.342 133.066 105.752C133.066 105.175 132.922 104.722 132.634 104.391C132.353 104.054 131.97 103.885 131.484 103.885C131.006 103.885 130.627 104.054 130.345 104.391C130.071 104.722 129.934 105.186 129.934 105.783C129.934 106.367 130.071 106.824 130.345 107.154C130.627 107.478 131.01 107.64 131.495 107.64Z" fill="black"/>
</g>
<defs>
<filter id="filter0_d_4602_7463" x="0" y="0" width="156.438" height="120.358" filterUnits="userSpaceOnUse" color-interpolation-filters="sRGB">
<feFlood flood-opacity="0" result="BackgroundImageFix"/>
<feColorMatrix in="SourceAlpha" type="matrix" values="0 0 0 0 0 0 0 0 0 0 0 0 0 0 0 0 0 0 127 0" result="hardAlpha"/>
<feOffset dy="4"/>
<feGaussianBlur stdDeviation="2"/>
<feComposite in2="hardAlpha" operator="out"/>
<feColorMatrix type="matrix" values="0 0 0 0 0 0 0 0 0 0 0 0 0 0 0 0 0 0 0.25 0"/>
<feBlend mode="normal" in2="BackgroundImageFix" result="effect1_dropShadow_4602_7463"/>
<feBlend mode="normal" in="SourceGraphic" in2="effect1_dropShadow_4602_7463" result="shape"/>
</filter>
</defs>
</svg>
