<svg width="132" height="132" viewBox="0 0 132 132" fill="none" xmlns="http://www.w3.org/2000/svg">
<g filter="url(#filter0_dd_4602_7695)">
<rect x="15.625" width="100" height="100" rx="50" fill="#1BA99D" fill-opacity="0.05" shape-rendering="crispEdges"/>
<rect x="17.1875" y="1.5625" width="96.875" height="96.875" rx="48.4375" stroke="white" stroke-width="3.125" shape-rendering="crispEdges"/>
<path d="M47.625 70C46.525 70 45.5833 69.6083 44.8 68.825C44.0167 68.0417 43.625 67.1 43.625 66V42C43.625 40.9 44.0167 39.9583 44.8 39.175C45.5833 38.3917 46.525 38 47.625 38H53.925L57.625 34H69.625V38H59.375L55.725 42H47.625V66H79.625V48H83.625V66C83.625 67.1 83.2333 68.0417 82.45 68.825C81.6667 69.6083 80.725 70 79.625 70H47.625ZM79.625 42V38H75.625V34H79.625V30H83.625V34H87.625V38H83.625V42H79.625ZM63.625 63C66.125 63 68.25 62.125 70 60.375C71.75 58.625 72.625 56.5 72.625 54C72.625 51.5 71.75 49.375 70 47.625C68.25 45.875 66.125 45 63.625 45C61.125 45 59 45.875 57.25 47.625C55.5 49.375 54.625 51.5 54.625 54C54.625 56.5 55.5 58.625 57.25 60.375C59 62.125 61.125 63 63.625 63ZM63.625 59C62.225 59 61.0417 58.5167 60.075 57.55C59.1083 56.5833 58.625 55.4 58.625 54C58.625 52.6 59.1083 51.4167 60.075 50.45C61.0417 49.4833 62.225 49 63.625 49C65.025 49 66.2083 49.4833 67.175 50.45C68.1417 51.4167 68.625 52.6 68.625 54C68.625 55.4 68.1417 56.5833 67.175 57.55C66.2083 58.5167 65.025 59 63.625 59Z" fill="#1BA99D" fill-opacity="0.4"/>
</g>
<defs>
<filter id="filter0_dd_4602_7695" x="-1.66893e-06" y="-7.15256e-07" width="131.25" height="131.25" filterUnits="userSpaceOnUse" color-interpolation-filters="sRGB">
<feFlood flood-opacity="0" result="BackgroundImageFix"/>
<feColorMatrix in="SourceAlpha" type="matrix" values="0 0 0 0 0 0 0 0 0 0 0 0 0 0 0 0 0 0 127 0" result="hardAlpha"/>
<feMorphology radius="4.6875" operator="erode" in="SourceAlpha" result="effect1_dropShadow_4602_7695"/>
<feOffset dy="6.25"/>
<feGaussianBlur stdDeviation="3.90625"/>
<feComposite in2="hardAlpha" operator="out"/>
<feColorMatrix type="matrix" values="0 0 0 0 0 0 0 0 0 0 0 0 0 0 0 0 0 0 0.1 0"/>
<feBlend mode="normal" in2="BackgroundImageFix" result="effect1_dropShadow_4602_7695"/>
<feColorMatrix in="SourceAlpha" type="matrix" values="0 0 0 0 0 0 0 0 0 0 0 0 0 0 0 0 0 0 127 0" result="hardAlpha"/>
<feMorphology radius="3.90625" operator="erode" in="SourceAlpha" result="effect2_dropShadow_4602_7695"/>
<feOffset dy="15.625"/>
<feGaussianBlur stdDeviation="9.76563"/>
<feComposite in2="hardAlpha" operator="out"/>
<feColorMatrix type="matrix" values="0 0 0 0 0 0 0 0 0 0 0 0 0 0 0 0 0 0 0.1 0"/>
<feBlend mode="normal" in2="effect1_dropShadow_4602_7695" result="effect2_dropShadow_4602_7695"/>
<feBlend mode="normal" in="SourceGraphic" in2="effect2_dropShadow_4602_7695" result="shape"/>
</filter>
</defs>
</svg>
