<svg width="19" height="19" viewBox="0 0 19 19" fill="none" xmlns="http://www.w3.org/2000/svg">
<g opacity="0.7">
<path d="M17.1313 5.28129L14.4985 15.8516C14.311 16.6407 13.6079 17.1875 12.7954 17.1875H2.52973C1.35005 17.1875 0.506309 16.0312 0.857871 14.8984L4.14693 4.33601C4.37349 3.60163 5.05319 3.09375 5.81881 3.09375H15.4282C16.1704 3.09375 16.7876 3.54688 17.0454 4.17188C17.1938 4.50782 17.225 4.89066 17.1313 5.28129Z" stroke="black" stroke-width="1.17188" stroke-miterlimit="10"/>
<path d="M12.5 17.1875H16.2344C17.2422 17.1875 18.0312 16.3359 17.9609 15.3281L17.1875 4.6875" stroke="black" stroke-width="1.17188" stroke-miterlimit="10" stroke-linecap="round" stroke-linejoin="round"/>
<path d="M7.5625 4.98433L8.37501 1.60938" stroke="black" stroke-width="1.17188" stroke-miterlimit="10" stroke-linecap="round" stroke-linejoin="round"/>
<path d="M12.7969 4.99216L13.5313 1.60156" stroke="black" stroke-width="1.17188" stroke-miterlimit="10" stroke-linecap="round" stroke-linejoin="round"/>
<path d="M6.01562 9.375H12.2656" stroke="black" stroke-width="1.17188" stroke-miterlimit="10" stroke-linecap="round" stroke-linejoin="round"/>
<path d="M5.23438 12.5H11.4844" stroke="black" stroke-width="1.17188" stroke-miterlimit="10" stroke-linecap="round" stroke-linejoin="round"/>
</g>
</svg>
