<svg width="29" height="29" viewBox="0 0 29 29" fill="none" xmlns="http://www.w3.org/2000/svg">
<rect x="0.90332" y="0.90332" width="26.3184" height="26.3184" rx="13.1592" fill="#1BA99D"/>
<rect x="0.90332" y="0.90332" width="26.3184" height="26.3184" rx="13.1592" stroke="white" stroke-width="1.80664"/>
<path d="M14.0951 17.2708C14.8242 17.2708 15.444 17.0156 15.9544 16.5052C16.4648 15.9948 16.7201 15.375 16.7201 14.6458C16.7201 13.9167 16.4648 13.2969 15.9544 12.7865C15.444 12.276 14.8242 12.0208 14.0951 12.0208C13.3659 12.0208 12.7461 12.276 12.2357 12.7865C11.7253 13.2969 11.4701 13.9167 11.4701 14.6458C11.4701 15.375 11.7253 15.9948 12.2357 16.5052C12.7461 17.0156 13.3659 17.2708 14.0951 17.2708ZM14.0951 16.1042C13.6867 16.1042 13.3416 15.9632 13.0596 15.6813C12.7777 15.3993 12.6367 15.0542 12.6367 14.6458C12.6367 14.2375 12.7777 13.8924 13.0596 13.6104C13.3416 13.3285 13.6867 13.1875 14.0951 13.1875C14.5034 13.1875 14.8485 13.3285 15.1305 13.6104C15.4124 13.8924 15.5534 14.2375 15.5534 14.6458C15.5534 15.0542 15.4124 15.3993 15.1305 15.6813C14.8485 15.9632 14.5034 16.1042 14.0951 16.1042ZM9.42839 19.3125C9.10755 19.3125 8.8329 19.1983 8.60443 18.9698C8.37595 18.7413 8.26172 18.4667 8.26172 18.1458V11.1458C8.26172 10.825 8.37595 10.5503 8.60443 10.3219C8.8329 10.0934 9.10755 9.97917 9.42839 9.97917H11.2659L12.3451 8.8125H15.8451L16.9242 9.97917H18.7617C19.0826 9.97917 19.3572 10.0934 19.5857 10.3219C19.8141 10.5503 19.9284 10.825 19.9284 11.1458V18.1458C19.9284 18.4667 19.8141 18.7413 19.5857 18.9698C19.3572 19.1983 19.0826 19.3125 18.7617 19.3125H9.42839ZM9.42839 18.1458H18.7617V11.1458H16.3992L15.3346 9.97917H12.8555L11.7909 11.1458H9.42839V18.1458Z" fill="white"/>
</svg>
