<svg width="383" height="783" viewBox="0 0 383 783" fill="none" xmlns="http://www.w3.org/2000/svg">
<g filter="url(#filter0_d_5054_7504)">
<rect width="375" height="775" transform="translate(4)" fill="white"/>
<path d="M65.8782 742.25V733.25H67.4532L70.7032 741.925H70.2282L73.4532 733.25H75.0532V742.25H74.0407V733.787H74.1782L71.0407 742.25H69.8157L66.6782 733.862H66.8157V742.25H65.8782ZM81.0438 742.25C81.0105 742.108 80.9855 741.946 80.9688 741.762C80.9605 741.579 80.9563 741.346 80.9563 741.062H80.8938V738.012C80.8938 737.529 80.7813 737.175 80.5563 736.95C80.3397 736.717 79.9855 736.6 79.4938 736.6C79.0105 736.6 78.623 736.7 78.3313 736.9C78.048 737.092 77.8897 737.367 77.8563 737.725H76.8938C76.9355 737.108 77.1938 736.625 77.6688 736.275C78.1438 735.925 78.7647 735.75 79.5313 735.75C80.323 735.75 80.9105 735.937 81.2938 736.312C81.6772 736.687 81.8688 737.25 81.8688 738V741.062C81.8688 741.246 81.8813 741.437 81.9063 741.637C81.9313 741.829 81.9647 742.033 82.0063 742.25H81.0438ZM78.8563 742.375C78.198 742.375 77.673 742.217 77.2813 741.9C76.898 741.575 76.7063 741.133 76.7063 740.575C76.7063 740.017 76.898 739.583 77.2813 739.275C77.6647 738.967 78.223 738.75 78.9563 738.625L81.1813 738.25V739.075L79.1063 739.4C78.6397 739.475 78.2855 739.6 78.0438 739.775C77.8022 739.95 77.6813 740.204 77.6813 740.537C77.6813 740.862 77.7897 741.108 78.0063 741.275C78.2313 741.442 78.5605 741.525 78.9938 741.525C79.5522 741.525 80.0063 741.4 80.3563 741.15C80.7147 740.892 80.8938 740.558 80.8938 740.15L81.0563 741.037C80.923 741.462 80.6605 741.792 80.2688 742.025C79.8855 742.258 79.4147 742.375 78.8563 742.375ZM88.4339 742.25V740.762L88.5589 740.8C88.4005 741.283 88.1089 741.667 87.6839 741.95C87.2672 742.233 86.7672 742.375 86.1839 742.375C85.6089 742.375 85.1047 742.237 84.6714 741.962C84.2464 741.687 83.913 741.304 83.6714 740.812C83.438 740.321 83.3214 739.746 83.3214 739.087C83.3214 738.421 83.4422 737.837 83.6839 737.337C83.9255 736.837 84.263 736.45 84.6964 736.175C85.1297 735.9 85.638 735.762 86.2214 735.762C86.8214 735.762 87.3255 735.908 87.7339 736.2C88.1422 736.492 88.4214 736.904 88.5714 737.437L88.3714 737.462V733.25H89.3714V742.25H88.4339ZM86.3714 741.5C87.013 741.5 87.513 741.283 87.8714 740.85C88.238 740.408 88.4214 739.808 88.4214 739.05C88.4214 738.308 88.238 737.721 87.8714 737.287C87.5047 736.854 87.0047 736.637 86.3714 736.637C85.738 736.637 85.2422 736.854 84.8839 737.287C84.5255 737.721 84.3464 738.321 84.3464 739.087C84.3464 739.837 84.5255 740.429 84.8839 740.862C85.2422 741.287 85.738 741.5 86.3714 741.5ZM93.9894 742.375C93.3811 742.375 92.8436 742.233 92.3769 741.95C91.9103 741.658 91.5436 741.262 91.2769 740.762C91.0103 740.262 90.8769 739.687 90.8769 739.037C90.8769 738.387 91.0061 737.817 91.2644 737.325C91.5311 736.825 91.9019 736.437 92.3769 736.162C92.8519 735.887 93.3978 735.75 94.0144 735.75C94.6061 735.75 95.1186 735.879 95.5519 736.137C95.9936 736.396 96.3311 736.758 96.5644 737.225C96.8061 737.692 96.9269 738.242 96.9269 738.875C96.9269 738.958 96.9228 739.037 96.9144 739.112C96.9144 739.187 96.9061 739.271 96.8894 739.362H91.6269V738.525H96.2769L95.9519 738.987C95.9519 738.221 95.7811 737.633 95.4394 737.225C95.1061 736.808 94.6311 736.6 94.0144 736.6C93.3811 736.6 92.8686 736.821 92.4769 737.262C92.0936 737.696 91.9019 738.283 91.9019 739.025C91.9019 739.783 92.0936 740.392 92.4769 740.85C92.8686 741.3 93.3894 741.525 94.0394 741.525C94.4478 741.525 94.8061 741.437 95.1144 741.262C95.4228 741.079 95.6478 740.821 95.7894 740.487H96.7394C96.5311 741.071 96.1811 741.533 95.6894 741.875C95.2061 742.208 94.6394 742.375 93.9894 742.375ZM102.235 742.25L100.285 735.875H101.298L102.798 741.337H102.548L104.348 735.875H105.16L106.973 741.337H106.723L108.21 735.875H109.173L107.223 742.25H106.41L104.61 736.912H104.873L103.048 742.25H102.235ZM110.493 742.25V735.875H111.493V742.25H110.493ZM110.418 734.425V733.25H111.568V734.425H110.418ZM116.022 742.363C115.313 742.363 114.797 742.204 114.472 741.887C114.155 741.562 113.997 741.096 113.997 740.487V734.387L114.997 734.012V740.475C114.997 740.833 115.088 741.096 115.272 741.262C115.455 741.429 115.755 741.512 116.172 741.512C116.338 741.512 116.48 741.504 116.597 741.487C116.722 741.462 116.822 741.433 116.897 741.4V742.25C116.813 742.283 116.693 742.308 116.534 742.325C116.384 742.35 116.213 742.363 116.022 742.363ZM112.684 736.725V735.875H116.897V736.725H112.684ZM118.184 742.25V733.25H119.184V742.25H118.184ZM122.746 742.25V738.075C122.746 737.592 122.625 737.229 122.384 736.987C122.142 736.746 121.784 736.625 121.309 736.625C120.892 736.625 120.521 736.717 120.196 736.9C119.879 737.083 119.629 737.337 119.446 737.662C119.271 737.987 119.184 738.367 119.184 738.8L119.021 737.287C119.238 736.812 119.567 736.437 120.009 736.162C120.459 735.887 120.967 735.75 121.534 735.75C122.2 735.75 122.734 735.942 123.134 736.325C123.542 736.7 123.746 737.196 123.746 737.812V742.25H122.746ZM127.169 743.125H139.669V730.625H127.169V743.125ZM143.696 742.25V734.975C143.696 734.392 143.863 733.937 144.196 733.612C144.538 733.287 145.055 733.125 145.746 733.125C145.913 733.125 146.042 733.133 146.134 733.15C146.234 733.167 146.317 733.187 146.384 733.212V734C146.326 733.983 146.242 733.967 146.134 733.95C146.034 733.933 145.926 733.925 145.809 733.925C145.426 733.925 145.142 734.021 144.959 734.212C144.784 734.404 144.696 734.675 144.696 735.025V742.25H143.696ZM142.384 736.725V735.875H146.246V736.725H142.384ZM149.996 742.375C149.371 742.375 148.821 742.229 148.346 741.937C147.871 741.646 147.5 741.25 147.234 740.75C146.975 740.242 146.846 739.671 146.846 739.037C146.846 738.396 146.98 737.829 147.246 737.337C147.513 736.846 147.88 736.458 148.346 736.175C148.821 735.892 149.371 735.75 149.996 735.75C150.63 735.75 151.18 735.892 151.646 736.175C152.121 736.458 152.488 736.846 152.746 737.337C153.013 737.829 153.146 738.396 153.146 739.037C153.146 739.671 153.013 740.242 152.746 740.75C152.488 741.25 152.121 741.646 151.646 741.937C151.18 742.229 150.63 742.375 149.996 742.375ZM149.996 741.525C150.43 741.525 150.805 741.421 151.121 741.212C151.438 740.996 151.684 740.7 151.859 740.325C152.034 739.95 152.121 739.517 152.121 739.025C152.121 738.292 151.925 737.704 151.534 737.262C151.15 736.821 150.638 736.6 149.996 736.6C149.363 736.6 148.85 736.821 148.459 737.262C148.067 737.704 147.871 738.292 147.871 739.025C147.871 739.517 147.959 739.95 148.134 740.325C148.309 740.7 148.555 740.996 148.871 741.212C149.196 741.421 149.571 741.525 149.996 741.525ZM154.646 742.25V735.875H155.583V737.5H155.646V742.25H154.646ZM155.646 738.925L155.483 737.412C155.633 736.871 155.9 736.458 156.283 736.175C156.667 735.892 157.108 735.75 157.608 735.75C157.817 735.75 157.958 735.767 158.033 735.8V736.762C157.992 736.746 157.933 736.737 157.858 736.737C157.783 736.729 157.692 736.725 157.583 736.725C156.95 736.725 156.467 736.917 156.133 737.3C155.808 737.675 155.646 738.217 155.646 738.925ZM161.911 742.25V733.25H162.936V742.25H161.911ZM162.436 742.25V741.35H167.936V742.25H162.436ZM162.436 738.012V737.112H167.486V738.012H162.436ZM162.436 734.15V733.25H167.836V734.15H162.436ZM173.778 742.25L171.666 739.287L169.141 735.875H170.303L172.253 738.612L174.941 742.25H173.778ZM171.728 738.662L173.728 735.875H174.853L172.253 739.337L171.728 738.662ZM172.153 739.35L169.991 742.25H168.853L171.666 738.637L172.153 739.35ZM179.488 742.363C178.888 742.363 178.384 742.217 177.975 741.925C177.567 741.633 177.288 741.221 177.138 740.687L177.338 740.662V744.813H176.338V735.875H177.275V737.362L177.138 737.325C177.296 736.833 177.596 736.45 178.038 736.175C178.48 735.892 178.992 735.75 179.575 735.75C180.142 735.75 180.634 735.887 181.05 736.162C181.475 736.437 181.805 736.821 182.038 737.312C182.271 737.804 182.388 738.379 182.388 739.037C182.388 739.704 182.267 740.287 182.025 740.787C181.784 741.287 181.446 741.675 181.013 741.95C180.58 742.225 180.071 742.363 179.488 742.363ZM179.338 741.487C179.971 741.487 180.467 741.271 180.825 740.837C181.184 740.396 181.363 739.796 181.363 739.037C181.363 738.287 181.184 737.7 180.825 737.275C180.467 736.842 179.971 736.625 179.338 736.625C178.705 736.625 178.205 736.846 177.838 737.287C177.471 737.721 177.288 738.317 177.288 739.075C177.288 739.817 177.471 740.404 177.838 740.837C178.205 741.271 178.705 741.487 179.338 741.487ZM186.531 742.375C185.923 742.375 185.385 742.233 184.918 741.95C184.452 741.658 184.085 741.262 183.818 740.762C183.552 740.262 183.418 739.687 183.418 739.037C183.418 738.387 183.548 737.817 183.806 737.325C184.073 736.825 184.443 736.437 184.918 736.162C185.393 735.887 185.939 735.75 186.556 735.75C187.148 735.75 187.66 735.879 188.093 736.137C188.535 736.396 188.873 736.758 189.106 737.225C189.348 737.692 189.468 738.242 189.468 738.875C189.468 738.958 189.464 739.037 189.456 739.112C189.456 739.187 189.448 739.271 189.431 739.362H184.168V738.525H188.818L188.493 738.987C188.493 738.221 188.323 737.633 187.981 737.225C187.648 736.808 187.173 736.6 186.556 736.6C185.923 736.6 185.41 736.821 185.018 737.262C184.635 737.696 184.443 738.283 184.443 739.025C184.443 739.783 184.635 740.392 185.018 740.85C185.41 741.3 185.931 741.525 186.581 741.525C186.989 741.525 187.348 741.437 187.656 741.262C187.964 741.079 188.189 740.821 188.331 740.487H189.281C189.073 741.071 188.723 741.533 188.231 741.875C187.748 742.208 187.181 742.375 186.531 742.375ZM193.499 742.375C192.916 742.375 192.395 742.233 191.937 741.95C191.487 741.658 191.128 741.262 190.862 740.762C190.603 740.254 190.474 739.679 190.474 739.037C190.474 738.396 190.603 737.829 190.862 737.337C191.128 736.846 191.487 736.458 191.937 736.175C192.395 735.892 192.912 735.75 193.487 735.75C193.962 735.75 194.387 735.842 194.762 736.025C195.145 736.208 195.457 736.471 195.699 736.812C195.949 737.146 196.107 737.537 196.174 737.987H195.249C195.166 737.579 194.974 737.246 194.674 736.987C194.374 736.729 193.987 736.6 193.512 736.6C193.103 736.6 192.749 736.7 192.449 736.9C192.149 737.1 191.916 737.383 191.749 737.75C191.582 738.117 191.499 738.546 191.499 739.037C191.499 739.529 191.582 739.962 191.749 740.337C191.916 740.712 192.149 741.004 192.449 741.212C192.757 741.421 193.116 741.525 193.524 741.525C193.982 741.525 194.366 741.4 194.674 741.15C194.982 740.892 195.178 740.558 195.262 740.15H196.187C196.112 740.592 195.945 740.983 195.687 741.325C195.437 741.658 195.124 741.917 194.749 742.1C194.374 742.283 193.957 742.375 193.499 742.375ZM200.165 742.363C199.456 742.363 198.94 742.204 198.615 741.887C198.298 741.562 198.14 741.096 198.14 740.487V734.387L199.14 734.012V740.475C199.14 740.833 199.231 741.096 199.415 741.262C199.598 741.429 199.898 741.512 200.315 741.512C200.481 741.512 200.623 741.504 200.74 741.487C200.865 741.462 200.965 741.433 201.04 741.4V742.25C200.956 742.283 200.836 742.308 200.677 742.325C200.527 742.35 200.356 742.363 200.165 742.363ZM196.827 736.725V735.875H201.04V736.725H196.827ZM202.327 742.25V735.875H203.327V742.25H202.327ZM202.252 734.425V733.25H203.402V734.425H202.252ZM205.33 742.25V735.875H206.267V737.375H206.33V742.25H205.33ZM209.892 742.25V738.075C209.892 737.592 209.771 737.229 209.53 736.987C209.288 736.746 208.93 736.625 208.455 736.625C208.038 736.625 207.667 736.717 207.342 736.9C207.025 737.083 206.775 737.337 206.592 737.662C206.417 737.987 206.33 738.367 206.33 738.8L206.167 737.287C206.384 736.812 206.713 736.437 207.155 736.162C207.605 735.887 208.113 735.75 208.68 735.75C209.346 735.75 209.88 735.942 210.28 736.325C210.688 736.7 210.892 737.196 210.892 737.812V742.25H209.892ZM215.35 744.938C214.592 744.938 213.958 744.758 213.45 744.4C212.95 744.05 212.646 743.583 212.538 743H213.488C213.579 743.333 213.783 743.596 214.1 743.788C214.425 743.988 214.863 744.088 215.413 744.088C216.063 744.088 216.554 743.908 216.888 743.55C217.221 743.2 217.388 742.683 217.388 742V740.637L217.513 740.662C217.371 741.146 217.088 741.533 216.663 741.825C216.238 742.108 215.733 742.25 215.15 742.25C214.592 742.25 214.1 742.117 213.675 741.85C213.25 741.575 212.921 741.196 212.688 740.712C212.454 740.229 212.338 739.667 212.338 739.025C212.338 738.375 212.458 737.804 212.7 737.312C212.942 736.821 213.279 736.442 213.713 736.175C214.154 735.9 214.667 735.762 215.25 735.762C215.85 735.762 216.35 735.908 216.75 736.2C217.158 736.492 217.429 736.908 217.563 737.45L217.45 737.462V735.875H218.388V742C218.388 742.908 218.117 743.625 217.575 744.15C217.033 744.675 216.292 744.938 215.35 744.938ZM215.4 741.387C216.025 741.387 216.521 741.171 216.888 740.737C217.254 740.304 217.438 739.717 217.438 738.975C217.438 738.25 217.254 737.679 216.888 737.262C216.521 736.837 216.025 736.625 215.4 736.625C214.767 736.625 214.267 736.837 213.9 737.262C213.542 737.687 213.363 738.271 213.363 739.012C213.363 739.737 213.546 740.317 213.913 740.75C214.279 741.175 214.775 741.387 215.4 741.387ZM222.971 742.25V733.25H226.546C227.187 733.25 227.733 733.354 228.183 733.562C228.633 733.771 228.975 734.071 229.208 734.462C229.45 734.854 229.571 735.325 229.571 735.875C229.571 736.425 229.45 736.9 229.208 737.3C228.975 737.692 228.633 737.996 228.183 738.212C227.733 738.429 227.187 738.537 226.546 738.537H223.721V737.637H226.508C227.175 737.637 227.679 737.487 228.021 737.187C228.371 736.879 228.546 736.442 228.546 735.875C228.546 735.308 228.375 734.879 228.033 734.587C227.691 734.296 227.183 734.15 226.508 734.15H223.996V742.25H222.971ZM234.657 742.25C234.624 742.108 234.599 741.946 234.582 741.762C234.574 741.579 234.57 741.346 234.57 741.062H234.507V738.012C234.507 737.529 234.395 737.175 234.17 736.95C233.953 736.717 233.599 736.6 233.107 736.6C232.624 736.6 232.236 736.7 231.945 736.9C231.661 737.092 231.503 737.367 231.47 737.725H230.507C230.549 737.108 230.807 736.625 231.282 736.275C231.757 735.925 232.378 735.75 233.145 735.75C233.936 735.75 234.524 735.937 234.907 736.312C235.29 736.687 235.482 737.25 235.482 738V741.062C235.482 741.246 235.495 741.437 235.52 741.637C235.545 741.829 235.578 742.033 235.62 742.25H234.657ZM232.47 742.375C231.811 742.375 231.286 742.217 230.895 741.9C230.511 741.575 230.32 741.133 230.32 740.575C230.32 740.017 230.511 739.583 230.895 739.275C231.278 738.967 231.836 738.75 232.57 738.625L234.795 738.25V739.075L232.72 739.4C232.253 739.475 231.899 739.6 231.657 739.775C231.415 739.95 231.295 740.204 231.295 740.537C231.295 740.862 231.403 741.108 231.62 741.275C231.845 741.442 232.174 741.525 232.607 741.525C233.165 741.525 233.62 741.4 233.97 741.15C234.328 740.892 234.507 740.558 234.507 740.15L234.67 741.037C234.536 741.462 234.274 741.792 233.882 742.025C233.499 742.258 233.028 742.375 232.47 742.375ZM237.41 742.25V735.875H238.347V737.5H238.41V742.25H237.41ZM238.41 738.925L238.247 737.412C238.397 736.871 238.664 736.458 239.047 736.175C239.431 735.892 239.872 735.75 240.372 735.75C240.581 735.75 240.722 735.767 240.797 735.8V736.762C240.756 736.746 240.697 736.737 240.622 736.737C240.547 736.729 240.456 736.725 240.347 736.725C239.714 736.725 239.231 736.917 238.897 737.3C238.572 737.675 238.41 738.217 238.41 738.925ZM244.49 742.375C243.882 742.375 243.344 742.233 242.877 741.95C242.411 741.658 242.044 741.262 241.777 740.762C241.511 740.262 241.377 739.687 241.377 739.037C241.377 738.387 241.507 737.817 241.765 737.325C242.032 736.825 242.402 736.437 242.877 736.162C243.352 735.887 243.898 735.75 244.515 735.75C245.107 735.75 245.619 735.879 246.052 736.137C246.494 736.396 246.832 736.758 247.065 737.225C247.307 737.692 247.427 738.242 247.427 738.875C247.427 738.958 247.423 739.037 247.415 739.112C247.415 739.187 247.407 739.271 247.39 739.362H242.127V738.525H246.777L246.452 738.987C246.452 738.221 246.282 737.633 245.94 737.225C245.607 736.808 245.132 736.6 244.515 736.6C243.882 736.6 243.369 736.821 242.977 737.262C242.594 737.696 242.402 738.283 242.402 739.025C242.402 739.783 242.594 740.392 242.977 740.85C243.369 741.3 243.89 741.525 244.54 741.525C244.948 741.525 245.307 741.437 245.615 741.262C245.923 741.079 246.148 740.821 246.29 740.487H247.24C247.032 741.071 246.682 741.533 246.19 741.875C245.707 742.208 245.14 742.375 244.49 742.375ZM248.933 742.25V735.875H249.871V737.375H249.933V742.25H248.933ZM253.496 742.25V738.075C253.496 737.592 253.375 737.229 253.133 736.987C252.891 736.746 252.533 736.625 252.058 736.625C251.641 736.625 251.271 736.717 250.946 736.9C250.629 737.083 250.379 737.337 250.196 737.662C250.021 737.987 249.933 738.367 249.933 738.8L249.771 737.287C249.987 736.812 250.316 736.437 250.758 736.162C251.208 735.887 251.716 735.75 252.283 735.75C252.95 735.75 253.483 735.942 253.883 736.325C254.291 736.7 254.496 737.196 254.496 737.812V742.25H253.496ZM258.795 742.363C258.087 742.363 257.57 742.204 257.245 741.887C256.928 741.562 256.77 741.096 256.77 740.487V734.387L257.77 734.012V740.475C257.77 740.833 257.862 741.096 258.045 741.262C258.228 741.429 258.528 741.512 258.945 741.512C259.112 741.512 259.253 741.504 259.37 741.487C259.495 741.462 259.595 741.433 259.67 741.4V742.25C259.587 742.283 259.466 742.308 259.308 742.325C259.158 742.35 258.987 742.363 258.795 742.363ZM255.458 736.725V735.875H259.67V736.725H255.458ZM263.095 742.375C262.312 742.375 261.687 742.196 261.22 741.837C260.753 741.471 260.487 740.954 260.42 740.287H261.383C261.441 740.696 261.62 741.008 261.92 741.225C262.22 741.442 262.62 741.55 263.12 741.55C263.562 741.55 263.908 741.467 264.158 741.3C264.408 741.133 264.533 740.896 264.533 740.587C264.533 740.371 264.462 740.183 264.32 740.025C264.178 739.858 263.895 739.721 263.47 739.612L262.445 739.35C261.862 739.2 261.424 738.971 261.133 738.662C260.841 738.346 260.695 737.971 260.695 737.537C260.695 736.987 260.899 736.554 261.308 736.237C261.716 735.912 262.27 735.75 262.97 735.75C263.662 735.75 264.224 735.917 264.658 736.25C265.091 736.583 265.337 737.046 265.395 737.637H264.433C264.374 737.296 264.216 737.033 263.958 736.85C263.699 736.667 263.358 736.575 262.933 736.575C262.524 736.575 262.208 736.654 261.983 736.812C261.758 736.962 261.645 737.179 261.645 737.462C261.645 737.679 261.724 737.867 261.883 738.025C262.049 738.183 262.324 738.317 262.708 738.425L263.708 738.7C264.299 738.858 264.745 739.1 265.045 739.425C265.345 739.75 265.495 740.142 265.495 740.6C265.495 741.158 265.283 741.596 264.858 741.912C264.433 742.221 263.845 742.375 263.095 742.375ZM273.468 742.375C272.552 742.375 271.756 742.188 271.081 741.812C270.406 741.437 269.885 740.912 269.518 740.237C269.152 739.554 268.968 738.75 268.968 737.825C268.968 736.9 269.147 736.087 269.506 735.387C269.872 734.679 270.377 734.125 271.018 733.725C271.668 733.325 272.414 733.125 273.256 733.125C273.914 733.125 274.51 733.25 275.043 733.5C275.585 733.75 276.027 734.096 276.368 734.537C276.718 734.979 276.931 735.492 277.006 736.075H275.981C275.897 735.458 275.61 734.967 275.118 734.6C274.635 734.233 274.027 734.05 273.293 734.05C272.635 734.05 272.06 734.208 271.568 734.525C271.077 734.833 270.693 735.267 270.418 735.825C270.152 736.383 270.018 737.042 270.018 737.8C270.018 738.558 270.156 739.212 270.431 739.762C270.714 740.304 271.118 740.721 271.643 741.012C272.177 741.304 272.814 741.45 273.556 741.45C274.064 741.45 274.518 741.379 274.918 741.237C275.318 741.087 275.681 740.858 276.006 740.55L277.031 740.925C276.572 741.408 276.043 741.771 275.443 742.012C274.852 742.254 274.193 742.375 273.468 742.375ZM276.006 740.925V738.012L276.393 738.4H273.543V737.5H277.031V740.925H276.006ZM278.901 742.25V733.25H279.901V742.25H278.901ZM284.554 742.375C283.929 742.375 283.379 742.229 282.904 741.937C282.429 741.646 282.058 741.25 281.792 740.75C281.533 740.242 281.404 739.671 281.404 739.037C281.404 738.396 281.538 737.829 281.804 737.337C282.071 736.846 282.438 736.458 282.904 736.175C283.379 735.892 283.929 735.75 284.554 735.75C285.188 735.75 285.738 735.892 286.204 736.175C286.679 736.458 287.046 736.846 287.304 737.337C287.571 737.829 287.704 738.396 287.704 739.037C287.704 739.671 287.571 740.242 287.304 740.75C287.046 741.25 286.679 741.646 286.204 741.937C285.738 742.229 285.188 742.375 284.554 742.375ZM284.554 741.525C284.988 741.525 285.363 741.421 285.679 741.212C285.996 740.996 286.242 740.7 286.417 740.325C286.592 739.95 286.679 739.517 286.679 739.025C286.679 738.292 286.483 737.704 286.092 737.262C285.708 736.821 285.196 736.6 284.554 736.6C283.921 736.6 283.408 736.821 283.017 737.262C282.625 737.704 282.429 738.292 282.429 739.025C282.429 739.517 282.517 739.95 282.692 740.325C282.867 740.7 283.113 740.996 283.429 741.212C283.754 741.421 284.129 741.525 284.554 741.525ZM292.354 742.363C291.754 742.363 291.25 742.217 290.842 741.925C290.433 741.633 290.154 741.221 290.004 740.687L290.142 740.662V742.25H289.204V733.25H290.204V737.362L290.067 737.325C290.225 736.833 290.512 736.45 290.929 736.175C291.354 735.892 291.858 735.75 292.442 735.75C293.008 735.75 293.5 735.887 293.917 736.162C294.342 736.437 294.671 736.821 294.904 737.312C295.137 737.804 295.254 738.379 295.254 739.037C295.254 739.704 295.133 740.287 294.892 740.787C294.65 741.287 294.312 741.675 293.879 741.95C293.446 742.225 292.937 742.363 292.354 742.363ZM292.204 741.487C292.837 741.487 293.333 741.271 293.692 740.837C294.05 740.396 294.229 739.796 294.229 739.037C294.229 738.287 294.05 737.7 293.692 737.275C293.333 736.842 292.837 736.625 292.204 736.625C291.571 736.625 291.071 736.846 290.704 737.287C290.337 737.721 290.154 738.317 290.154 739.075C290.154 739.817 290.337 740.404 290.704 740.837C291.071 741.271 291.571 741.487 292.204 741.487ZM300.722 742.25C300.688 742.108 300.663 741.946 300.647 741.762C300.638 741.579 300.634 741.346 300.634 741.062H300.572V738.012C300.572 737.529 300.459 737.175 300.234 736.95C300.017 736.717 299.663 736.6 299.172 736.6C298.688 736.6 298.301 736.7 298.009 736.9C297.726 737.092 297.567 737.367 297.534 737.725H296.572C296.613 737.108 296.872 736.625 297.347 736.275C297.822 735.925 298.442 735.75 299.209 735.75C300.001 735.75 300.588 735.937 300.972 736.312C301.355 736.687 301.547 737.25 301.547 738V741.062C301.547 741.246 301.559 741.437 301.584 741.637C301.609 741.829 301.642 742.033 301.684 742.25H300.722ZM298.534 742.375C297.876 742.375 297.351 742.217 296.959 741.9C296.576 741.575 296.384 741.133 296.384 740.575C296.384 740.017 296.576 739.583 296.959 739.275C297.342 738.967 297.901 738.75 298.634 738.625L300.859 738.25V739.075L298.784 739.4C298.317 739.475 297.963 739.6 297.722 739.775C297.48 739.95 297.359 740.204 297.359 740.537C297.359 740.862 297.467 741.108 297.684 741.275C297.909 741.442 298.238 741.525 298.672 741.525C299.23 741.525 299.684 741.4 300.034 741.15C300.392 740.892 300.572 740.558 300.572 740.15L300.734 741.037C300.601 741.462 300.338 741.792 299.947 742.025C299.563 742.258 299.092 742.375 298.534 742.375ZM303.474 742.25V733.25H304.474V742.25H303.474ZM306.477 742.25V733.25H307.477V742.25H306.477ZM310.03 744.813L311.455 741.5L311.68 741.15L313.767 735.875H314.792L311.092 744.813H310.03ZM311.567 742.313L308.705 735.875H309.805L312.267 741.637L311.567 742.313ZM316.091 739.625L315.941 733H317.016L316.866 739.625H316.091ZM315.841 742.25V740.962H317.129V742.25H315.841Z" fill="black" fill-opacity="0.69"/>
<path d="M189.92 357.223C191.501 358.803 192.773 360.681 193.91 362.607C194.166 363.04 194.755 363.126 195.127 362.788C196.506 361.543 197.826 360.233 199.446 359.286C205.962 355.476 213.677 357.067 214.637 365.387C215.777 375.279 207.877 385.285 200.271 390.69C197.893 392.38 193.759 394.522 191.025 393.605C187.733 392.501 185.25 389.292 183.3 384.464L185.123 383.395L186.206 385.318C187.493 387.294 190.273 391.692 192.954 391.528C194.984 391.404 198.578 388.711 200.171 387.404C204.914 383.513 209.575 377.996 211.156 371.942C212.467 366.917 212.144 359.865 205.246 360.364C201.793 360.614 198.583 363.038 196.394 365.562C196.349 365.613 196.284 365.697 196.205 365.805C195.193 367.161 193.12 367.004 192.307 365.519C192.293 365.494 192.28 365.47 192.265 365.444C189.968 361.348 186.439 357.423 181.785 356.089C176.226 354.494 171.257 357.028 170.73 363.043C169.746 374.271 178.165 391.618 188.884 395.12C192.528 396.31 193.584 396.302 196.507 395.894L199.891 394.946C199.74 394.605 200.307 396.31 200.308 396.31C200.952 399.024 191.894 400.024 186.231 397.014C175.05 391.072 167.113 376.52 167.047 364.445C166.971 350.492 181.349 348.651 189.919 357.224L189.92 357.223Z" fill="#8EC63F"/>
<path d="M194.01 380.13C195.489 379.279 197.422 379.551 198.245 381.135C200.109 384.721 195.158 388.027 192.152 389.071C192.003 389.123 191.838 389.092 191.717 388.989C189.883 387.432 187.58 384.091 187.364 381.764C186.955 377.34 191.804 376.426 193.332 379.949C193.447 380.214 193.779 380.303 194.01 380.13Z" fill="#1BA99D"/>
<path d="M188.194 331.105C200.571 332.927 194.95 353.166 183.397 351.29C171.36 349.334 176.479 329.383 188.194 331.105ZM187.471 334.609C180.165 333.661 176.09 346.663 183.711 348.015C191.448 349.388 195.714 335.677 187.471 334.609Z" fill="#1BA99D"/>
<path d="M189.92 357.223C191.501 358.803 192.773 360.681 193.91 362.607C194.166 363.04 194.755 363.126 195.127 362.788C196.506 361.543 197.826 360.233 199.446 359.286C205.962 355.476 213.677 357.067 214.637 365.387C215.777 375.279 207.877 385.285 200.271 390.69C197.893 392.38 193.759 394.522 191.025 393.605C187.733 392.501 185.25 389.292 183.3 384.464L185.123 383.395L186.206 385.318C187.493 387.294 190.273 391.692 192.954 391.528C194.984 391.404 198.578 388.711 200.171 387.404C204.914 383.513 209.575 377.996 211.156 371.942C212.467 366.917 212.144 359.865 205.246 360.364C201.793 360.614 198.583 363.038 196.394 365.562C196.349 365.613 196.284 365.697 196.205 365.805C195.193 367.161 193.12 367.004 192.307 365.519C192.293 365.494 192.28 365.47 192.265 365.444C189.968 361.348 186.439 357.423 181.785 356.089C176.226 354.494 171.257 357.028 170.73 363.043C169.746 374.271 178.165 391.618 188.884 395.12C192.528 396.31 193.584 396.302 196.507 395.894L199.891 394.946C199.74 394.605 200.307 396.31 200.308 396.31C200.952 399.024 191.894 400.024 186.231 397.014C175.05 391.072 167.113 376.52 167.047 364.445C166.971 350.492 181.349 348.651 189.919 357.224L189.92 357.223Z" fill="#8EC63F"/>
<path d="M194.01 380.13C195.489 379.279 197.422 379.551 198.245 381.135C200.109 384.721 195.158 388.027 192.152 389.071C192.003 389.123 191.838 389.092 191.717 388.989C189.883 387.432 187.58 384.091 187.364 381.764C186.955 377.34 191.804 376.426 193.332 379.949C193.447 380.214 193.779 380.303 194.01 380.13Z" fill="#1BA99D"/>
<path d="M188.194 331.105C200.571 332.927 194.95 353.166 183.397 351.29C171.36 349.334 176.479 329.383 188.194 331.105ZM187.471 334.609C180.165 333.661 176.09 346.663 183.711 348.015C191.448 349.388 195.714 335.677 187.471 334.609Z" fill="#1BA99D"/>
<g opacity="0.65">
<path d="M190.565 357.976C192.145 359.556 193.418 361.434 194.554 363.36C194.81 363.793 195.399 363.879 195.772 363.541C197.15 362.296 198.471 360.986 200.09 360.039C206.607 356.229 214.322 357.82 215.282 366.14C216.421 376.032 208.521 386.038 200.916 391.443C198.538 393.133 194.403 395.274 191.67 394.358C188.377 393.254 185.895 390.045 183.945 385.217L185.768 384.147L186.85 386.07C188.138 388.047 190.918 392.445 193.599 392.281C195.628 392.157 199.223 389.463 200.815 388.157C205.559 384.266 210.22 378.749 211.8 372.694C213.112 367.67 212.789 360.618 205.891 361.117C202.438 361.367 199.227 363.791 197.038 366.315C196.993 366.366 196.929 366.45 196.85 366.558C195.837 367.914 193.765 367.757 192.951 366.272C192.938 366.246 192.924 366.223 192.909 366.197C190.613 362.101 187.084 358.176 182.43 356.842C176.87 355.247 171.901 357.781 171.375 363.796C170.391 375.024 178.81 392.37 189.528 395.873C193.173 397.063 194.228 397.055 197.152 396.647L200.536 395.699C200.385 395.358 200.952 397.063 200.953 397.063C201.596 399.777 192.539 400.777 186.876 397.767C175.695 391.825 167.758 377.273 167.692 365.198C167.615 351.245 181.993 349.404 190.563 357.977L190.565 357.976Z" fill="#8EC63F"/>
<path d="M194.654 380.883C196.133 380.032 198.067 380.304 198.889 381.888C200.754 385.474 195.803 388.78 192.797 389.824C192.647 389.876 192.483 389.845 192.362 389.741C190.527 388.185 188.224 384.844 188.009 382.517C187.599 378.093 192.449 377.179 193.977 380.702C194.092 380.967 194.424 381.056 194.654 380.883Z" fill="#1BA99D"/>
<path d="M188.838 331.858C201.215 333.68 195.594 353.919 184.041 352.043C172.005 350.087 177.124 330.136 188.838 331.858ZM188.116 335.362C180.81 334.414 176.735 347.416 184.355 348.768C192.092 350.141 196.358 336.43 188.116 335.362Z" fill="#1BA99D"/>
</g>
<path d="M117.458 411.66V411.608H121.961C125.106 411.608 127.822 414.049 127.822 417.727C127.822 421.56 125.106 423.983 121.961 423.983H117.458V423.915C117.527 423.605 117.853 422.488 117.853 421.422V414.169C117.853 413.087 117.527 411.987 117.458 411.66ZM121.394 412.262H120.002V423.313H121.394C124.023 423.313 125.416 420.804 125.398 417.727C125.381 414.754 124.023 412.262 121.394 412.262ZM130.38 413.722C129.658 413.722 129.039 413.138 129.039 412.399C129.039 411.66 129.641 411.076 130.38 411.076C131.119 411.076 131.738 411.66 131.738 412.399C131.738 413.138 131.119 413.722 130.38 413.722ZM131.875 423.915V423.983H129.074V423.915C129.142 423.605 129.469 422.488 129.469 421.422V417.951C129.469 416.868 129.142 415.768 129.074 415.441V415.39H131.48V421.422C131.48 422.488 131.806 423.605 131.875 423.915ZM134.025 417.744C133.595 416.765 132.994 415.768 132.701 415.441V415.39H136.173V415.441C136.07 415.751 135.812 416.713 136.208 417.641L138.047 422.076L139.817 417.658C140.195 416.73 139.903 415.751 139.783 415.441V415.39H141.69V415.441C141.57 415.647 141.02 416.524 140.659 417.383L138.03 423.983H136.672L134.025 417.744ZM143.925 413.722C143.203 413.722 142.584 413.138 142.584 412.399C142.584 411.66 143.186 411.076 143.925 411.076C144.664 411.076 145.283 411.66 145.283 412.399C145.283 413.138 144.664 413.722 143.925 413.722ZM145.42 423.915V423.983H142.619V423.915C142.688 423.605 143.014 422.488 143.014 421.422V417.951C143.014 416.868 142.688 415.768 142.619 415.441V415.39H145.025V421.422C145.025 422.488 145.352 423.605 145.42 423.915ZM149.547 423.915V423.983H146.745V423.915C146.814 423.605 147.14 422.488 147.14 421.422V417.951C147.14 416.868 146.814 415.768 146.745 415.441V415.39H149.151V416.868C149.822 415.905 150.733 415.287 151.936 415.287C153.397 415.287 154.754 416.146 154.754 418.191V421.422C154.754 422.488 155.081 423.605 155.15 423.915V423.983H152.331V423.915C152.4 423.605 152.726 422.488 152.726 421.422V418.449C152.726 417.126 151.918 416.593 151.042 416.576C150.372 416.576 149.753 416.868 149.151 417.383V421.422C149.151 422.488 149.478 423.605 149.547 423.915ZM160.265 424.138C158.117 424.138 156.106 422.574 156.106 419.687C156.106 416.971 157.859 415.287 160.265 415.287C162.809 415.287 164.046 417.194 164.046 419.446H158.323C158.443 421.388 159.32 422.763 161.142 422.763C162.07 422.763 162.929 422.437 163.926 421.594L163.978 421.646C163.462 422.918 162.138 424.138 160.265 424.138ZM160.231 415.905C158.856 415.905 158.306 417.435 158.306 419.033L161.984 418.638C161.932 417.16 161.451 415.905 160.231 415.905Z" fill="#1BA99D"/>
<path d="M174.517 423.983L170.512 413.843C170.495 413.997 170.495 414.152 170.495 414.307V420.099C170.495 421.766 171.269 423.588 171.355 423.897V423.983H168.845V423.897C168.931 423.588 169.705 421.766 169.705 420.099V414.307C169.705 413.155 169.12 411.918 169.051 411.677V411.608H172.248L175.875 420.666L179.261 411.608H182.269V411.677C182.217 411.901 181.822 413.138 181.822 414.29V421.302C181.822 422.454 182.217 423.691 182.269 423.915V423.983H178.814V423.915C178.866 423.691 179.261 422.454 179.261 421.302V413.808L175.462 423.983H174.517ZM187.714 424.155C185.308 424.155 183.245 422.608 183.245 419.635C183.245 416.679 185.308 415.235 187.714 415.235C190.103 415.235 192.2 416.696 192.2 419.635C192.2 422.608 190.103 424.155 187.714 424.155ZM187.714 423.468C188.969 423.468 189.484 421.526 189.484 419.635C189.484 417.762 188.969 415.905 187.714 415.905C186.442 415.905 185.961 417.779 185.961 419.635C185.961 421.508 186.442 423.468 187.714 423.468ZM196.23 424.155C194.786 424.155 193.944 423.158 193.944 421.457V416.077H192.689V415.407C194.408 414.685 195.422 413.654 196.264 412.468H196.368V415.338H198.705V416.077H196.368V421.216C196.368 422.127 196.849 422.54 197.553 422.54C197.914 422.54 198.396 422.437 198.894 422.162C198.482 423.193 197.657 424.155 196.23 424.155ZM202.966 423.915V423.983H199.666V423.915C199.718 423.691 200.113 422.454 200.113 421.302V414.135C200.113 412.983 199.701 411.797 199.615 411.574L199.598 411.505L200.044 411.437L202.537 411.144V416.747C203.19 415.854 204.083 415.235 205.287 415.235C206.799 415.235 208.123 416.146 208.123 418.122V421.302C208.123 422.454 208.518 423.691 208.552 423.915V423.983H205.252V423.915C205.304 423.691 205.699 422.454 205.699 421.302V418.449C205.699 417.229 204.926 416.765 204.083 416.765C203.551 416.765 203.035 416.954 202.537 417.28V421.302C202.537 422.454 202.932 423.691 202.966 423.915ZM213.709 424.155C211.578 424.155 209.413 422.677 209.413 419.669C209.413 416.902 211.217 415.235 213.744 415.235C216.528 415.235 217.663 417.297 217.663 419.463H212.077C212.248 421.268 213.056 422.557 214.809 422.557C215.703 422.557 216.511 422.265 217.491 421.526L217.559 421.56C217.095 422.78 215.772 424.155 213.709 424.155ZM212.059 418.844C212.059 418.913 212.059 418.982 212.059 419.051L215.239 418.552C215.205 417.212 214.861 415.905 213.709 415.905C212.455 415.905 212.042 417.401 212.059 418.844ZM221.966 423.915V423.983H218.649V423.915C218.7 423.691 219.095 422.454 219.095 421.302V418.019C219.095 416.868 218.7 415.63 218.649 415.39V415.338H221.519V416.971C222.155 415.682 223.341 414.737 225.111 415.304L224.733 417.933H224.647C223.891 417.16 222.688 416.593 221.519 417.435V421.302C221.519 422.454 221.914 423.691 221.966 423.915ZM229.1 423.915V423.983H225.8V423.915C225.852 423.691 226.247 422.454 226.247 421.302V414.135C226.247 412.983 225.834 411.797 225.748 411.574L225.731 411.505L226.178 411.437L228.67 411.144V416.747C229.323 415.854 230.217 415.235 231.42 415.235C232.933 415.235 234.256 416.146 234.256 418.122V421.302C234.256 422.454 234.652 423.691 234.686 423.915V423.983H231.386V423.915C231.438 423.691 231.833 422.454 231.833 421.302V418.449C231.833 417.229 231.059 416.765 230.217 416.765C229.684 416.765 229.169 416.954 228.67 417.28V421.302C228.67 422.454 229.066 423.691 229.1 423.915ZM240.015 424.155C237.609 424.155 235.546 422.608 235.546 419.635C235.546 416.679 237.609 415.235 240.015 415.235C242.404 415.235 244.501 416.696 244.501 419.635C244.501 422.608 242.404 424.155 240.015 424.155ZM240.015 423.468C241.27 423.468 241.785 421.526 241.785 419.635C241.785 417.762 241.27 415.905 240.015 415.905C238.743 415.905 238.262 417.779 238.262 419.635C238.262 421.508 238.743 423.468 240.015 423.468ZM249.968 424.155C247.562 424.155 245.5 422.608 245.5 419.635C245.5 416.679 247.562 415.235 249.968 415.235C252.357 415.235 254.454 416.696 254.454 419.635C254.454 422.608 252.357 424.155 249.968 424.155ZM249.968 423.468C251.223 423.468 251.739 421.526 251.739 419.635C251.739 417.762 251.223 415.905 249.968 415.905C248.696 415.905 248.215 417.779 248.215 419.635C248.215 421.508 248.696 423.468 249.968 423.468ZM262.087 423.983C261.915 423.554 261.692 423.227 261.554 422.712C260.833 423.777 259.819 424.138 258.925 424.138C257.172 424.138 255.47 422.677 255.47 419.669C255.47 416.679 257.154 415.235 258.959 415.235C259.939 415.235 260.884 415.665 261.451 416.524V414.135C261.451 412.983 260.867 411.797 260.781 411.574L260.764 411.522L261.383 411.437L263.875 411.144V421.302C263.875 422.454 264.27 423.691 264.322 423.915V423.983H262.087ZM258.1 419.618C258.1 421.268 258.564 422.901 259.99 422.901C260.506 422.901 260.987 422.66 261.469 422.23C261.451 422.093 261.451 421.921 261.451 421.749V417.212C261.039 416.851 260.558 416.61 260.025 416.61C258.701 416.61 258.1 417.933 258.1 419.618Z" fill="#8EC63F"/>
<path d="M134.999 438.546V430.952H136.117V438.546H134.999ZM135.548 438.546V437.628H139.935V438.546H135.548ZM140.52 438.546V433.167H141.617V438.546H140.52ZM140.468 432.112V430.878H141.681V432.112H140.468ZM143.158 438.546V432.545C143.158 431.996 143.312 431.578 143.622 431.29C143.931 430.994 144.395 430.847 145.014 430.847C145.155 430.847 145.271 430.854 145.362 430.868C145.453 430.882 145.534 430.903 145.605 430.931V431.775C145.555 431.761 145.489 431.747 145.404 431.733C145.327 431.719 145.239 431.712 145.14 431.712C144.831 431.712 144.606 431.789 144.465 431.944C144.325 432.091 144.255 432.302 144.255 432.576V438.546H143.158ZM142.124 434.042V433.167H145.489V434.042H142.124ZM148.26 438.651C147.718 438.651 147.24 438.532 146.825 438.293C146.418 438.054 146.098 437.723 145.866 437.301C145.634 436.879 145.518 436.394 145.518 435.846C145.518 435.29 145.63 434.805 145.855 434.39C146.087 433.969 146.411 433.642 146.825 433.41C147.24 433.178 147.715 433.062 148.249 433.062C148.77 433.062 149.22 433.174 149.599 433.399C149.986 433.617 150.281 433.923 150.485 434.317C150.696 434.71 150.802 435.178 150.802 435.719C150.802 435.804 150.798 435.885 150.791 435.962C150.791 436.032 150.784 436.106 150.77 436.183H146.256V435.361H150L149.726 435.688C149.726 435.111 149.596 434.672 149.336 434.369C149.075 434.067 148.713 433.916 148.249 433.916C147.75 433.916 147.353 434.088 147.057 434.433C146.769 434.77 146.625 435.241 146.625 435.846C146.625 436.458 146.769 436.936 147.057 437.28C147.353 437.625 147.761 437.797 148.281 437.797C148.597 437.797 148.872 437.734 149.104 437.607C149.336 437.474 149.508 437.28 149.62 437.027H150.654C150.478 437.533 150.179 437.931 149.757 438.219C149.343 438.507 148.843 438.651 148.26 438.651ZM155.132 438.546L152.928 430.952H154.067L155.997 437.945H155.723L157.558 430.952H158.876L160.722 437.945H160.448L162.378 430.952H163.453L161.249 438.546H159.941L158.085 431.743H158.307L156.44 438.546H155.132ZM164.121 438.546V433.167H165.218V438.546H164.121ZM164.068 432.112V430.878H165.281V432.112H164.068ZM168.614 438.651C167.989 438.651 167.528 438.507 167.233 438.219C166.944 437.924 166.8 437.491 166.8 436.922V431.933L167.887 431.522V436.932C167.887 437.213 167.96 437.421 168.108 437.554C168.256 437.688 168.495 437.755 168.825 437.755C168.952 437.755 169.064 437.744 169.163 437.723C169.261 437.702 169.346 437.678 169.416 437.649V438.535C169.339 438.571 169.23 438.599 169.089 438.62C168.948 438.641 168.79 438.651 168.614 438.651ZM165.724 434.042V433.167H169.416V434.042H165.724ZM170.065 438.546V430.952H171.162V438.546H170.065ZM173.883 438.546V435.087C173.883 434.714 173.788 434.436 173.598 434.253C173.416 434.071 173.141 433.979 172.776 433.979C172.459 433.979 172.178 434.049 171.932 434.19C171.693 434.331 171.503 434.524 171.362 434.77C171.229 435.016 171.162 435.308 171.162 435.646L171.025 434.359C171.201 433.958 171.471 433.642 171.837 433.41C172.203 433.178 172.628 433.062 173.113 433.062C173.69 433.062 174.143 433.223 174.474 433.547C174.804 433.87 174.969 434.299 174.969 434.833V438.546H173.883ZM176.05 438.546V433.167H177.147V438.546H176.05ZM175.997 432.112V430.878H177.21V432.112H175.997ZM178.296 438.546V433.167H179.34V434.433H179.393V438.546H178.296ZM182.114 438.546V435.087C182.114 434.714 182.019 434.436 181.829 434.253C181.647 434.071 181.372 433.979 181.007 433.979C180.69 433.979 180.409 434.049 180.163 434.19C179.924 434.331 179.734 434.524 179.593 434.77C179.46 435.016 179.393 435.308 179.393 435.646L179.256 434.359C179.432 433.958 179.702 433.642 180.068 433.41C180.434 433.178 180.859 433.062 181.344 433.062C181.921 433.062 182.374 433.223 182.705 433.547C183.035 433.87 183.2 434.299 183.2 434.833V438.546H182.114ZM185.981 440.149V439.601C186.227 439.516 186.396 439.386 186.487 439.21C186.586 439.042 186.635 438.796 186.635 438.472L187.067 438.546H185.97V437.249H187.268V438.229C187.268 438.715 187.166 439.122 186.962 439.453C186.765 439.783 186.438 440.015 185.981 440.149ZM193.436 438.651C192.909 438.651 192.42 438.556 191.97 438.367C191.52 438.17 191.13 437.899 190.799 437.554C190.476 437.203 190.223 436.788 190.04 436.31C189.857 435.832 189.766 435.308 189.766 434.738C189.766 434.169 189.854 433.649 190.029 433.178C190.212 432.699 190.465 432.288 190.789 431.944C191.119 431.592 191.509 431.321 191.959 431.131C192.409 430.942 192.898 430.847 193.425 430.847C194.016 430.847 194.547 430.966 195.018 431.205C195.489 431.437 195.872 431.768 196.168 432.197C196.47 432.626 196.656 433.125 196.727 433.694H195.63C195.538 433.097 195.296 432.633 194.902 432.302C194.515 431.965 194.027 431.796 193.436 431.796C192.937 431.796 192.494 431.919 192.107 432.165C191.727 432.404 191.432 432.745 191.221 433.188C191.01 433.624 190.905 434.141 190.905 434.738C190.905 435.329 191.01 435.849 191.221 436.299C191.439 436.742 191.738 437.087 192.118 437.333C192.497 437.579 192.937 437.702 193.436 437.702C194.027 437.702 194.519 437.537 194.913 437.206C195.313 436.869 195.556 436.401 195.64 435.804H196.748C196.67 436.38 196.48 436.883 196.178 437.312C195.876 437.734 195.489 438.064 195.018 438.303C194.554 438.535 194.027 438.651 193.436 438.651ZM200.708 438.546C200.673 438.412 200.648 438.265 200.634 438.103C200.627 437.941 200.623 437.744 200.623 437.512H200.571V434.949C200.571 434.605 200.483 434.348 200.307 434.179C200.138 434.004 199.868 433.916 199.495 433.916C199.136 433.916 198.848 433.986 198.63 434.127C198.419 434.267 198.296 434.468 198.261 434.728H197.217C197.266 434.222 197.495 433.817 197.902 433.515C198.31 433.213 198.855 433.062 199.537 433.062C200.24 433.062 200.768 433.227 201.119 433.557C201.471 433.881 201.646 434.359 201.646 434.992V437.512C201.646 437.674 201.657 437.839 201.678 438.008C201.699 438.177 201.731 438.356 201.773 438.546H200.708ZM198.852 438.651C198.303 438.651 197.867 438.518 197.544 438.251C197.22 437.976 197.059 437.607 197.059 437.143C197.059 436.665 197.227 436.289 197.565 436.015C197.909 435.733 198.402 435.544 199.041 435.445L200.813 435.16V435.93L199.21 436.183C198.852 436.24 198.581 436.335 198.398 436.468C198.222 436.602 198.134 436.795 198.134 437.048C198.134 437.294 198.215 437.481 198.377 437.607C198.546 437.727 198.788 437.787 199.105 437.787C199.527 437.787 199.875 437.685 200.149 437.481C200.43 437.277 200.571 437.02 200.571 436.711L200.708 437.491C200.581 437.864 200.356 438.152 200.033 438.356C199.709 438.553 199.316 438.651 198.852 438.651ZM202.742 438.546V433.167H203.786V434.506H203.839V438.546H202.742ZM203.839 435.74L203.702 434.464C203.828 434.007 204.046 433.659 204.356 433.42C204.665 433.181 205.034 433.062 205.463 433.062C205.625 433.062 205.737 433.076 205.8 433.104V434.137C205.765 434.123 205.716 434.116 205.653 434.116C205.59 434.109 205.512 434.106 205.421 434.106C204.893 434.106 204.496 434.243 204.229 434.517C203.969 434.791 203.839 435.199 203.839 435.74ZM208.555 438.651C208.013 438.651 207.535 438.532 207.12 438.293C206.712 438.054 206.392 437.723 206.16 437.301C205.928 436.879 205.812 436.394 205.812 435.846C205.812 435.29 205.925 434.805 206.15 434.39C206.382 433.969 206.705 433.642 207.12 433.41C207.535 433.178 208.01 433.062 208.544 433.062C209.064 433.062 209.514 433.174 209.894 433.399C210.281 433.617 210.576 433.923 210.78 434.317C210.991 434.71 211.096 435.178 211.096 435.719C211.096 435.804 211.093 435.885 211.086 435.962C211.086 436.032 211.079 436.106 211.065 436.183H206.551V435.361H210.295L210.021 435.688C210.021 435.111 209.891 434.672 209.63 434.369C209.37 434.067 209.008 433.916 208.544 433.916C208.045 433.916 207.648 434.088 207.352 434.433C207.064 434.77 206.92 435.241 206.92 435.846C206.92 436.458 207.064 436.936 207.352 437.28C207.648 437.625 208.055 437.797 208.576 437.797C208.892 437.797 209.166 437.734 209.398 437.607C209.63 437.474 209.803 437.28 209.915 437.027H210.949C210.773 437.533 210.474 437.931 210.052 438.219C209.637 438.507 209.138 438.651 208.555 438.651ZM213.085 438.546L215.943 430.952H216.914L214.182 438.546H213.085ZM218.96 438.546L216.228 430.952H217.251L220.12 438.546H218.96ZM214.53 435.519H218.601V436.447H214.53V435.519ZM220.841 438.546V433.167H221.886V434.506H221.938V438.546H220.841ZM221.938 435.74L221.801 434.464C221.928 434.007 222.146 433.659 222.455 433.42C222.765 433.181 223.134 433.062 223.563 433.062C223.724 433.062 223.837 433.076 223.9 433.104V434.137C223.865 434.123 223.816 434.116 223.752 434.116C223.689 434.109 223.612 434.106 223.52 434.106C222.993 434.106 222.596 434.243 222.329 434.517C222.068 434.791 221.938 435.199 221.938 435.74ZM226.799 438.651C226.25 438.651 225.769 438.532 225.354 438.293C224.939 438.047 224.616 437.713 224.384 437.291C224.152 436.862 224.036 436.377 224.036 435.835C224.036 435.287 224.152 434.805 224.384 434.39C224.623 433.976 224.946 433.652 225.354 433.42C225.769 433.181 226.25 433.062 226.799 433.062C227.354 433.062 227.839 433.181 228.254 433.42C228.669 433.652 228.989 433.976 229.214 434.39C229.446 434.805 229.562 435.287 229.562 435.835C229.562 436.377 229.446 436.862 229.214 437.291C228.989 437.713 228.669 438.047 228.254 438.293C227.839 438.532 227.354 438.651 226.799 438.651ZM226.799 437.755C227.129 437.755 227.414 437.674 227.653 437.512C227.899 437.351 228.093 437.126 228.233 436.837C228.374 436.549 228.444 436.212 228.444 435.825C228.444 435.248 228.289 434.795 227.98 434.464C227.678 434.127 227.284 433.958 226.799 433.958C226.321 433.958 225.927 434.127 225.618 434.464C225.315 434.802 225.164 435.255 225.164 435.825C225.164 436.212 225.231 436.549 225.364 436.837C225.505 437.126 225.698 437.351 225.945 437.512C226.198 437.674 226.482 437.755 226.799 437.755ZM232.049 438.651C231.69 438.651 231.374 438.578 231.1 438.43C230.825 438.275 230.611 438.064 230.456 437.797C230.309 437.53 230.235 437.224 230.235 436.879V433.167H231.332V436.626C231.332 436.999 231.423 437.277 231.606 437.46C231.789 437.642 232.049 437.734 232.386 437.734C232.689 437.734 232.956 437.663 233.188 437.523C233.427 437.382 233.613 437.189 233.747 436.943C233.888 436.69 233.958 436.398 233.958 436.067L234.095 437.354C233.919 437.748 233.649 438.064 233.283 438.303C232.924 438.535 232.513 438.651 232.049 438.651ZM234 438.546V437.28H233.958V433.167H235.044V438.546H234ZM236.19 438.546V433.167H237.234V434.433H237.287V438.546H236.19ZM240.008 438.546V435.087C240.008 434.714 239.913 434.436 239.724 434.253C239.541 434.071 239.266 433.979 238.901 433.979C238.584 433.979 238.303 434.049 238.057 434.19C237.818 434.331 237.628 434.524 237.488 434.77C237.354 435.016 237.287 435.308 237.287 435.646L237.15 434.359C237.326 433.958 237.597 433.642 237.962 433.41C238.328 433.178 238.753 433.062 239.238 433.062C239.815 433.062 240.268 433.223 240.599 433.547C240.929 433.87 241.095 434.299 241.095 434.833V438.546H240.008ZM246.077 438.546V437.312L246.183 437.344C246.07 437.744 245.838 438.064 245.486 438.303C245.135 438.535 244.713 438.651 244.221 438.651C243.736 438.651 243.31 438.535 242.945 438.303C242.586 438.071 242.305 437.748 242.101 437.333C241.904 436.918 241.806 436.433 241.806 435.878C241.806 435.315 241.908 434.823 242.111 434.401C242.315 433.979 242.6 433.652 242.966 433.42C243.331 433.188 243.76 433.072 244.252 433.072C244.766 433.072 245.188 433.195 245.518 433.441C245.856 433.68 246.077 434.018 246.183 434.454L246.035 434.475V430.952H247.121V438.546H246.077ZM244.495 437.734C244.98 437.734 245.363 437.569 245.645 437.238C245.926 436.901 246.066 436.437 246.066 435.846C246.066 435.269 245.922 434.816 245.634 434.485C245.353 434.148 244.97 433.979 244.484 433.979C244.006 433.979 243.627 434.148 243.345 434.485C243.071 434.816 242.934 435.28 242.934 435.878C242.934 436.461 243.071 436.918 243.345 437.249C243.627 437.572 244.01 437.734 244.495 437.734Z" fill="black"/>
</g>
<defs>
<filter id="filter0_d_5054_7504" x="0" y="0" width="383" height="783" filterUnits="userSpaceOnUse" color-interpolation-filters="sRGB">
<feFlood flood-opacity="0" result="BackgroundImageFix"/>
<feColorMatrix in="SourceAlpha" type="matrix" values="0 0 0 0 0 0 0 0 0 0 0 0 0 0 0 0 0 0 127 0" result="hardAlpha"/>
<feOffset dy="4"/>
<feGaussianBlur stdDeviation="2"/>
<feComposite in2="hardAlpha" operator="out"/>
<feColorMatrix type="matrix" values="0 0 0 0 0 0 0 0 0 0 0 0 0 0 0 0 0 0 0.25 0"/>
<feBlend mode="normal" in2="BackgroundImageFix" result="effect1_dropShadow_5054_7504"/>
<feBlend mode="normal" in="SourceGraphic" in2="effect1_dropShadow_5054_7504" result="shape"/>
</filter>
</defs>
</svg>
